<svg width="148" height="126" viewBox="0 0 148 126" fill="none" xmlns="http://www.w3.org/2000/svg">
<path d="M124.333 53.8272C124.491 53.7324 124.679 54.2524 124.87 54.2807C125.61 54.4038 125.875 54.7642 126.521 54.9641C126.696 55.0222 126.961 55.0411 127.206 55.0585C127.323 55.0675 127.452 55.0752 127.521 55.0891C127.557 55.0961 127.575 55.1048 127.57 55.1174C127.571 55.1293 127.524 55.1491 127.61 55.1558C128.226 55.1781 127.727 55.4612 127.863 55.914C127.969 56.3606 128.446 56.9124 128.93 57.8925C128.93 57.8926 128.93 57.8927 128.93 57.8928C128.946 57.9244 128.961 57.9565 128.977 57.9891C129.282 58.6052 129.449 59.3565 129.731 60.0801C130.002 60.8055 132.161 65.3542 131.585 65.8825C131.037 66.3952 129.344 66.2107 128.905 65.8972C128.758 65.8316 128.518 65.7819 128.373 65.7413C128.227 65.7015 128.126 65.6792 128.06 65.6922C127.802 65.7447 127.54 66.2081 127.264 66.2944C126.385 66.5694 125.965 66.2335 125.212 67.4707C124.928 66.8171 124.619 66.1628 124.342 65.5082C123.946 65.8083 123.374 64.9423 123.156 64.9874C122.97 65.0246 122.849 65.5394 122.645 65.5612C122.439 65.5888 122.087 65.0276 121.693 65.1066C121.037 65.2333 120.894 66.5777 120.502 66.7433C120.072 66.9143 119.473 66.1737 118.926 66.639C118.86 66.7862 118.794 66.9333 118.728 67.0804C118.768 67.416 118.809 67.7516 118.85 68.0873C118.59 68.2392 118.488 67.551 118.244 67.5347C117.952 67.5151 117.796 68.1634 117.61 68.1574C117.457 68.1518 117.254 67.6266 117.047 67.6558C116.745 67.6958 116.793 68.4501 116.632 68.5884C116.58 68.6424 115.388 69.0377 115.316 69.0423C114.825 69.0634 114.797 68.0314 114.393 67.9339C113.28 67.6679 112.133 68.4799 111.079 68.7747C110.609 68.9067 110.152 68.8379 109.686 68.6638C110.471 66.0391 108.883 63.9535 109.412 68.0949C108.905 67.4972 108.544 68.6053 108.056 68.407C107.747 68.2778 107.515 67.7004 107.087 67.7068C106.507 67.7177 105.845 68.6202 105.47 67.8432C105.351 67.5812 105.264 67.1278 105.223 66.3844C104.305 66.8844 103.475 65.7996 103.108 68.3899C102.869 68.5437 102.289 66.984 102.021 66.7681C101.753 66.5646 99.8429 65.8252 99.5099 65.779C99.1803 65.733 98.6346 65.6789 98.3613 65.9009C98.019 66.1756 97.7261 68.8636 97.186 65.7017C96.4644 65.941 96.2405 65.8459 95.5942 65.4659C95.4778 65.3971 95.4746 64.9294 95.4057 64.9274C95.2636 64.9243 95.0137 65.2645 94.7569 65.3011C94.3313 65.3608 94.1217 64.372 94.1341 65.8754C93.8575 66.1214 93.5796 66.3673 93.3003 66.6132C93.2107 66.3211 93.1208 66.029 93.0309 65.7369C92.8771 66.0497 92.7229 66.3625 92.5683 66.6752C92.7906 64.505 91.7196 65.7649 92.0307 67.0199C91.5051 66.5583 90.9948 66.097 90.4704 65.6354C90.6012 63.1662 89.3025 65.3242 89.3768 66.67C89.3152 66.6667 89.2537 66.6633 89.194 66.6601C88.6813 65.9916 88.1824 66.5179 87.5406 66.0625C86.8979 65.6071 86.9636 65.3678 86.7899 64.2269C86.6336 64.2885 86.4832 64.3502 86.3294 64.4119C85.4614 67.5098 85.7273 62.1186 84.2932 64.4775C83.8939 62.5094 82.8016 63.5139 82.0662 64.0913C81.9809 64.1584 81.9709 64.5384 81.8567 64.6531C81.5759 64.9288 80.8946 64.4245 80.8913 65.6511C80.6606 65.291 80.4294 64.9308 80.1979 64.5706C79.997 64.7891 79.7958 65.0076 79.5943 65.2261C79.5866 65.6088 79.5789 65.9916 79.5712 66.3743C79.2065 65.061 78.5671 65.548 78.2719 65.2293C78.2127 65.1647 78.2116 64.6364 78.0263 64.4882C77.8097 64.3122 77.3946 64.4591 77.1345 64.2881C77.0187 64.8706 76.9028 65.4531 76.7868 66.0356C76.3073 66.342 76.1759 64.7946 75.9006 64.6683C75.8484 64.6463 74.9415 64.7366 74.891 64.7684C74.484 65.0205 74.5689 66.3381 73.4128 66.0299C73.2068 65.9742 73.0493 65.5154 72.8626 65.4928C72.5347 65.4523 71.5178 66.4616 71.4176 67.4134C71.0454 66.2107 69.9594 66.674 69.654 66.3219C69.5613 66.2137 69.5573 65.453 69.2687 65.2845C69.0348 65.1471 68.41 65.7418 68.1113 65.6331C67.7944 65.5148 67.6949 64.8736 67.5527 64.8251C67.4184 64.78 67.2816 65.2927 67.0976 65.2855C66.5233 65.2543 66.0217 64.4126 65.5676 64.3868C64.9108 64.3478 64.2952 65.8608 63.7293 66.5258C63.595 66.4237 63.4684 66.093 63.3253 66.0867C61.5566 65.998 59.5662 65.6709 57.7969 65.3031C56.9745 65.134 54.9761 63.015 55.4425 66.4846C55.1384 67.0833 53.0929 65.6417 52.696 65.6115C52.2986 65.5816 51.9697 66.1942 51.6581 66.1962C50.7181 66.2016 50.071 65.7398 48.9103 66.2532C48.6115 66.3875 48.2789 67.1146 48.1049 67.1021C47.8953 67.0853 47.686 66.3698 47.4162 66.3185C46.7617 66.2014 45.543 66.4072 44.9276 66.2702C44.8145 66.2436 44.7916 65.6191 44.631 65.4204C44.0075 64.644 43.2952 64.6938 43.3755 66.6878C42.5889 65.5388 41.8187 66.5529 41.0566 66.5987C39.4713 66.6914 36.5682 66.1603 35.1601 66.9656C34.2863 67.4739 34.2716 68.367 33.002 67.5674C32.7208 67.3901 32.4438 67.1532 32.1073 66.9416C31.2911 66.4432 30.5825 64.7767 29.9296 66.7512C29.0287 66.2152 28.2965 66.5647 27.68 64.85C27.5944 65.2561 27.5016 65.662 27.4127 66.0681C27.2995 66.0756 27.1868 66.0832 27.0745 66.0909C27.0481 65.7012 27.0218 65.3115 26.9955 64.9218C26.1981 64.7994 25.1716 66.3761 24.4896 66.3496C24.237 66.34 23.8986 66.2982 23.5204 66.233C22.1437 66.0065 20.2459 65.5006 19.4289 65.0759C18.8581 64.7849 18.8132 65.6173 18.5276 63.8982C18.3998 64.0147 18.2729 64.1311 18.1469 64.2476C18.061 64.6209 17.9793 64.9942 17.8873 65.3674C17.1313 65.3663 16.3231 64.7666 15.6069 64.7575C14.3546 64.7432 12.4398 65.7357 11.1798 65.0322C10.8818 64.8552 10.4782 64.0736 10.1719 64.0761C9.73056 64.0793 9.58323 65.36 9.00994 65.3726C8.01771 65.3919 6.21068 63.8662 5.28093 63.9639C4.99215 63.9918 4.85596 64.467 4.67069 64.5148C3.86108 64.7199 3.21839 64.6704 2.43962 65.3981C1.64781 64.1585 1.74175 62.5731 1.49645 60.9694C1.22092 59.7705 1.06463 56.9172 0.143699 55.9495C-0.220848 55.6323 0.207304 55.1279 0.340919 54.6894C0.471641 54.2443 0.554255 53.7977 0.389914 53.3957C0.794579 53.295 0.878189 53.2401 1.02706 53.1973C1.16158 53.156 1.28058 53.1352 1.38205 53.1323C1.59779 53.1266 1.77208 53.1928 1.94443 53.3155C2.27739 53.561 2.60525 54.0331 2.99069 54.6145C4.50871 54.5907 5.98992 54.5724 7.48282 54.5548C7.6103 55.0042 7.74397 55.4538 7.87338 55.9033C7.87336 55.9043 7.87334 55.9053 7.87332 55.9063C8.4114 56.4325 8.71268 55.2872 9.01071 55.0317C11.9983 52.5877 17.8276 54.6688 21.0396 55.0203C21.5684 55.0748 22.8507 54.8025 23.7658 54.9216C24.0985 54.9674 24.3701 55.0725 24.4996 55.2788C24.6194 55.4705 24.6389 56.1602 24.7709 56.1931C25.993 55.8099 27.1569 55.4256 28.3554 55.0423C30.7824 56.1673 33.2968 55.3393 35.759 55.23C42.4058 54.9336 48.9992 54.5421 55.5176 54.8572C56.7783 54.9192 58.3928 54.4399 59.6184 54.8012C60.1301 54.9511 60.3193 56.0624 61.0159 55.2534C61.0162 55.5517 61.0165 55.8499 61.0167 56.1482C61.617 55.8019 62.0095 55.1323 62.6733 55.0786C63.2321 55.0344 64.71 55.0241 65.2001 55.1494C65.4545 55.2122 65.3465 55.7671 65.5849 55.7697C65.9933 55.7701 66.8828 55.0201 67.4456 55.0329C67.9564 55.0447 68.802 55.7061 69.1961 55.6221C70.613 55.3245 72.1769 54.4087 73.6756 54.698C74.0908 54.7796 74.6092 55.5141 74.7397 55.4969C74.9948 55.4607 75.0864 54.7609 75.2589 54.6745C76.13 54.2384 77.4764 55.1032 78.32 55.1555C81.0937 55.3265 84.0344 55.0866 86.7866 55.2773C88.5436 55.3977 91.4234 55.3382 93.0321 55.9015C93.3774 56.0232 93.2678 56.7898 93.5587 56.7962C93.8808 56.8031 94.0653 56.2876 94.2156 56.2489C95.2742 55.9782 97.5879 55.5034 98.5654 56.0553C98.7498 56.1613 98.8715 56.7664 98.9825 56.7666C99.0395 56.7679 99.1716 56.3595 99.3529 56.3213C100.957 55.9837 102.106 56.2478 103.628 56.4206C104.312 56.4954 105.011 56.5173 105.702 56.5117C108.132 56.494 110.731 56.1604 113.139 56.5253C113.827 56.628 114.236 57.8272 114.348 57.8172C114.562 57.797 114.715 56.9982 115.138 56.8078C116.558 56.1823 118.434 57.069 119.775 56.6869C120.42 56.4985 121.37 55.4942 121.994 55.2766C122.532 55.1036 123.722 55.5147 123.957 55.0695C124.092 54.8007 124.163 53.9345 124.333 53.8272ZM106.631 67.0285C106.754 65.6449 105.748 66.7764 106.102 67.5276C106.183 67.6968 106.6 67.3877 106.631 67.0285ZM61.012 63.6061C61.0119 64.0021 61.0117 64.398 61.0115 64.7939C61.1435 64.6322 61.2754 64.4705 61.4074 64.3088C61.3408 64.0692 61.2743 63.8297 61.2077 63.5901C61.1425 63.5954 61.0772 63.6008 61.012 63.6061Z" fill="white"/>
<path d="M145.824 53.5682C145.983 53.6035 145.707 54.0765 145.789 54.2147C146.12 54.791 146 55.2108 146.234 55.8493C146.359 56.1959 146.759 56.6949 147.072 57.3937C147.101 57.425 147.154 57.5434 147.182 57.5756C147.37 58.0812 147.433 58.5905 147.06 58.8364C146.863 58.9548 146.579 58.998 145.959 58.8493C145.648 58.7794 145.213 58.6381 144.682 58.5665C144.153 58.4885 143.589 58.5649 143.513 58.8426C143.513 58.8427 143.513 58.8428 143.513 58.8429C143.501 58.8761 143.494 58.9116 143.492 58.9494C143.477 59.1235 143.74 59.4234 143.841 59.7067C143.959 59.9943 143.967 60.2524 143.907 60.4519C143.782 60.8545 143.464 61.0852 143.16 61.3228C142.561 61.8128 138.464 64.7413 137.9 64.3692C137.387 64.0453 137.74 63.3541 137.89 62.9723L137.958 63.0839C138.02 62.9676 138.051 62.8749 138.022 62.8583C137.943 62.8098 137.512 62.988 137.384 62.9489C136.972 62.8246 137.085 62.4338 135.897 62.9418C136.303 62.4103 136.691 61.86 137.075 61.3071C136.702 61.3394 137.116 60.513 136.986 60.4406C136.879 60.3813 136.451 60.6783 136.355 60.6101C136.243 60.5335 136.508 60.0002 136.274 59.8763C135.895 59.6734 134.869 60.5508 134.584 60.5019C134.283 60.4466 134.528 59.6525 133.959 59.7538C133.826 59.8302 133.693 59.9066 133.56 59.9829C133.344 60.2405 133.127 60.4977 132.911 60.7547C132.688 60.7527 133.123 60.2167 133.022 60.0998C132.906 59.964 132.389 60.3676 132.306 60.2817C132.24 60.2127 132.503 59.7401 132.394 59.6791C132.232 59.5838 131.734 60.1513 131.565 60.1835C131.497 60.1924 130.684 59.9866 130.647 59.9598C130.394 59.7585 131.094 59.0008 130.969 58.7576C130.625 58.0914 129.52 58.1984 128.824 57.983C128.516 57.8894 128.322 57.6289 128.223 57.314C130.352 55.6857 130.98 53.4733 128.473 56.7783C128.624 56.1197 127.702 56.7869 127.6 56.4389C127.535 56.2137 127.808 55.6878 127.589 55.5092C127.193 55.1909 125.679 56.0186 127.541 53.7356C126.741 53.7135 127.063 52.5711 125.17 54.3628C124.947 54.3769 125.674 52.9523 125.686 52.6815C125.69 52.5502 125.566 52.1302 125.416 51.7206C125.392 51.6889 125.292 51.617 125.269 51.5843C125.139 51.1831 124.994 50.796 124.932 50.7091C124.801 50.5277 124.565 50.2382 124.274 50.272C123.918 50.318 121.911 52.1232 123.834 49.5965C123.319 49.4479 123.266 49.2692 123.214 48.7044C123.205 48.6025 123.527 48.2634 123.495 48.231C123.429 48.1655 123.069 48.2958 122.922 48.21C122.678 48.0663 123.256 47.254 122.222 48.3454C121.915 48.3962 121.611 48.4503 121.304 48.5012C121.463 48.2501 121.62 47.9978 121.779 47.7473C121.489 47.9049 121.198 48.0622 120.907 48.2194C122.515 46.751 121.128 47.1856 120.41 48.2296C120.478 47.6655 120.543 47.0981 120.61 46.5327C122.375 44.8025 120.262 45.7919 119.37 46.7999C119.343 46.7705 119.316 46.741 119.289 46.7115C119.501 46.0002 118.893 46.1576 118.899 45.5479C118.901 44.9344 119.099 44.7909 119.798 43.8853C119.681 43.8625 119.564 43.8394 119.446 43.8161C116.902 45.6904 120.718 41.8736 118.411 42.9715C119.559 41.3581 118.331 41.6071 117.585 41.717C117.497 41.7293 117.235 42.0042 117.101 42.0391C116.777 42.1195 116.787 41.4563 115.955 42.3576C116.086 41.993 116.213 41.6252 116.344 41.261C116.098 41.3361 115.853 41.4112 115.607 41.4862C115.345 41.7658 115.084 42.0453 114.822 42.3249C115.526 41.1963 114.891 41.289 114.958 40.9244C114.972 40.851 115.325 40.4588 115.332 40.2686C115.343 40.0449 115.041 39.9779 115.026 39.7394C114.58 40.123 114.133 40.507 113.687 40.8912C113.248 40.9177 114.216 39.7104 114.164 39.4993C114.154 39.4612 113.643 39.1434 113.597 39.1465C113.228 39.164 112.394 40.1824 112.031 39.4722C111.966 39.3446 112.19 38.934 112.112 38.8388C111.977 38.6723 110.806 39.0081 110.134 39.6868C110.741 38.6274 109.897 38.5293 109.975 38.1385C109.999 38.0185 110.493 37.4399 110.458 37.1927C110.428 36.9906 109.731 37.1879 109.652 36.9832C109.57 36.7635 109.934 36.2336 109.893 36.138C109.854 36.0483 109.455 36.3846 109.368 36.3043C109.2 36.1439 109.249 35.7535 109.256 35.4315C109.263 35.2387 109.254 35.0708 109.174 34.9942C108.866 34.6974 107.588 35.614 106.881 35.9029C106.879 35.7708 107.025 35.465 106.956 35.4029C106.119 34.6305 105.305 33.5883 104.618 32.6025C104.301 32.147 104.565 29.6919 102.664 32.6025C102.139 32.9558 101.96 31.0184 101.769 30.839C101.58 30.6604 101.032 31.0154 100.867 30.8953C100.37 30.5322 100.31 29.9124 99.3867 29.8673C99.1473 29.8571 98.5278 30.3031 98.4431 30.2249C98.3422 30.1295 98.6674 29.4805 98.555 29.3337C98.2837 28.9881 97.5137 28.6766 97.2658 28.324C97.2217 28.2586 97.5879 27.7528 97.6244 27.5332C97.7694 26.6767 97.3574 26.4356 96.1889 28.0507C96.469 26.8311 95.4367 27.3304 95.0073 27.072C94.0994 26.5202 92.8687 24.9559 91.6199 25.0321C90.8315 25.0798 90.2859 25.7877 90.088 24.6435C90.0458 24.391 90.0357 24.0876 89.981 23.7824C89.854 23.0655 90.498 21.465 88.918 22.7442C88.7666 21.9579 88.1497 21.9263 88.8764 20.3222C88.5753 20.6027 88.2741 20.883 87.9727 21.1632C87.9073 21.1224 87.8421 21.0817 87.7772 21.0411C88.0066 20.7261 88.2363 20.4112 88.4661 20.0965C88.1165 19.672 86.5521 20.4476 86.2014 20.1342C85.9487 19.9099 85.5984 19.4613 85.2637 18.9441C84.817 18.2435 84.4202 17.4387 84.2996 16.921C84.1986 16.4557 83.6259 17.0608 84.6069 15.6393C84.4625 15.6693 84.3184 15.6995 84.1745 15.7299C83.8827 15.9715 83.5908 16.213 83.2987 16.4543C82.9154 16.1264 82.8705 15.2942 82.5214 14.978C81.8785 14.3992 80.2041 14.2324 80.0444 13.1267C80.0005 12.8449 80.3518 12.1057 80.1889 11.9566C79.9568 11.7432 78.9961 12.598 78.6925 12.327C78.1682 11.8577 78.3316 9.87935 77.8095 9.48455C77.6514 9.36374 77.2401 9.62257 77.1118 9.55922C76.565 9.29122 76.282 8.92153 75.3886 9.03404C75.9338 7.80373 77.1475 6.77959 78.219 5.57739C79.0322 4.67413 80.8109 2.47216 81.5233 1.68599C82.0296 1.13876 82.8476 0.611093 83.3968 7.89351e-05C84.4358 0.153764 84.0608 0.821873 83.5667 1.99018C84.2441 2.67032 84.903 3.31177 85.5834 3.94875C85.3213 4.3206 85.0617 4.6949 84.7998 5.06665C84.7991 5.06733 84.7984 5.06801 84.7977 5.06869C84.6845 5.69157 85.6117 4.99198 85.9362 4.94855C88.9851 4.49418 90.2967 8.39673 91.709 10.0121C91.8496 10.173 92.2194 10.3558 92.5818 10.5939C92.9913 10.8569 93.3787 11.1861 93.2494 11.5984C93.1872 11.7937 92.7603 12.3353 92.8039 12.4116C93.6478 12.5898 94.4921 12.7577 95.3453 12.9271C95.8861 14.7544 97.7316 15.0974 99.0982 15.9714C102.793 18.3313 106.582 20.5981 109.891 23.4947C110.529 24.0545 111.694 24.34 112.127 25.1307C112.309 25.4605 111.711 26.4022 112.593 26.0627C112.405 26.2949 112.218 26.527 112.031 26.7592C112.568 26.7384 113.199 26.3815 113.59 26.6199C113.916 26.8192 114.713 27.4379 114.894 27.7448C114.99 27.9022 114.578 28.2825 114.703 28.3863C114.796 28.4613 115.025 28.4679 115.279 28.4713C115.617 28.4766 115.998 28.4757 116.162 28.6186C116.423 28.846 116.44 29.7151 116.7 29.82C117.636 30.2047 119.054 30.1956 119.643 31.0734C119.805 31.3172 119.586 32.0948 119.665 32.1403C119.821 32.2258 120.332 31.7423 120.479 31.7541C121.223 31.816 121.337 33.0559 121.734 33.4712C123.036 34.8303 124.688 35.9827 125.933 37.371C126.719 38.2449 128.194 39.5214 128.584 40.6482C128.667 40.8903 128.084 41.3948 128.222 41.5315C128.376 41.6826 128.822 41.3937 128.922 41.4335C129.624 41.713 131.073 42.405 131.157 43.2293C131.174 43.388 130.817 43.8814 130.87 43.9309C130.897 43.9567 131.244 43.7209 131.355 43.7706C131.72 43.9359 131.999 44.1301 132.233 44.3462L132.072 44.1971C132.53 44.5865 132.841 45.0348 133.281 45.5479C134.577 47.0622 136.821 48.0649 138.082 49.8178C138.366 50.2072 137.764 51.2795 137.825 51.3202C137.946 51.4019 138.566 50.8851 138.909 50.9392C140.057 51.1346 140.406 52.6696 141.35 53.0555C141.817 53.2461 143.001 53.0044 143.501 53.207C143.898 53.361 144.233 54.3191 144.691 54.166C144.965 54.0676 145.649 53.5328 145.824 53.5682ZM127.811 54.8081C128.787 53.822 127.538 54.2461 127.219 54.9599C127.147 55.1209 127.559 55.0645 127.811 54.8081ZM107.342 32.5569C107.092 32.8646 106.843 33.1723 106.594 33.48C106.764 33.4068 106.933 33.3337 107.103 33.2607C107.219 33.0481 107.336 32.8355 107.452 32.6228C107.416 32.6008 107.379 32.5789 107.342 32.5569Z" fill="white"/>
<path d="M89.2583 124.521C89.1598 124.714 88.6408 124.447 88.4612 124.536C88.2805 124.625 88.1373 124.669 88.0185 124.687C87.6395 124.742 87.3314 124.647 86.9505 124.706C86.5842 124.761 86.0812 125.192 85.624 125.122C85.3983 125.082 85.1863 124.927 85.0603 124.446C84.9945 124.205 84.9653 123.864 84.9096 123.414C84.8552 122.971 84.7405 122.389 84.3298 122.196C84.3297 122.195 84.3297 122.195 84.3296 122.195C84.2985 122.179 84.266 122.163 84.2324 122.15C83.9074 122.04 83.4161 122.139 83.0768 121.957C82.7274 121.797 82.4552 121.524 82.1827 121.248C81.6316 120.707 78.122 117.094 78.4306 116.465C78.834 115.659 80.3005 116.257 80.4318 116.101C80.5244 115.994 80.4165 115.522 80.5127 115.364C80.8068 114.877 81.1971 114.987 80.9161 113.866C80.9057 113.825 80.894 113.784 80.8809 113.741C81.361 114.206 81.7937 114.701 82.2698 115.161C82.1949 114.843 82.928 115.357 82.9988 115.235C83.0474 115.143 82.7566 114.712 82.818 114.627C82.8877 114.526 83.3946 114.822 83.5179 114.595C83.7126 114.234 82.8481 113.198 82.8974 112.917C82.9569 112.618 83.736 112.886 83.643 112.317C83.5704 112.181 83.4971 112.046 83.4217 111.913C83.1685 111.692 82.9166 111.469 82.6619 111.25C82.6677 111.027 83.1922 111.475 83.3106 111.377C83.4534 111.259 83.0542 110.74 83.1432 110.657C83.2145 110.591 83.6796 110.866 83.743 110.758C83.8421 110.598 83.2858 110.088 83.2586 109.917C83.2546 109.845 83.4809 109.037 83.5079 109.002C83.7071 108.762 84.4574 109.471 84.704 109.353C85.3765 109.031 85.3031 107.926 85.5468 107.235C85.6567 106.925 85.9068 106.759 86.2385 106.659C87.7797 108.852 89.9631 109.569 86.7634 106.93C87.405 107.118 86.7823 106.162 87.1368 106.072C87.362 106.02 87.8648 106.326 88.0584 106.109C88.4043 105.717 87.6246 104.19 89.8284 106.146C89.8749 105.361 91.0072 105.732 89.3086 103.756C89.3007 103.538 90.6786 104.344 90.9523 104.365C91.0266 104.371 91.1949 104.341 91.4035 104.289C91.8992 104.182 92.6416 103.943 92.7669 103.855C92.9356 103.74 93.2168 103.514 93.1767 103.229C93.1273 102.877 91.3209 100.872 93.8351 102.807C93.9658 102.31 94.1433 102.258 94.7029 102.21C94.8043 102.201 95.1443 102.522 95.1764 102.49C95.2395 102.425 95.1 102.074 95.1835 101.928C95.321 101.69 96.132 102.268 95.0374 101.238C94.9818 100.934 94.9269 100.63 94.8728 100.325C95.1245 100.483 95.3752 100.641 95.6251 100.801C95.4646 100.513 95.3043 100.225 95.1443 99.9365C96.6203 101.537 96.1687 100.164 95.1258 99.4459C95.6858 99.5168 96.2576 99.5758 96.8133 99.651C98.5459 101.414 97.5432 99.3126 96.5357 98.4208C96.5647 98.394 96.5937 98.3671 96.6228 98.3401C97.3365 98.5499 97.171 97.9506 97.7786 97.9597C98.3871 97.9679 98.5323 98.1637 99.4349 98.8665C99.4578 98.7499 99.4809 98.6331 99.5041 98.5162C97.6377 95.9669 101.429 99.8074 100.342 97.4991C101.946 98.6605 101.692 97.4473 101.593 96.6987C101.581 96.6118 101.31 96.3456 101.276 96.2121C101.198 95.8888 101.863 95.9074 100.973 95.0629C101.335 95.2004 101.697 95.3376 102.059 95.4746C101.988 95.2282 101.917 94.9817 101.846 94.735C101.572 94.4681 101.297 94.2012 101.023 93.9343C102.135 94.6631 102.06 94.0212 102.419 94.0998C102.492 94.1159 102.876 94.4787 103.064 94.492C103.286 94.5093 103.36 94.2095 103.598 94.2024C103.225 93.7464 102.853 93.2904 102.481 92.8343C102.467 92.3939 103.648 93.3942 103.859 93.3497C103.897 93.3415 104.227 92.844 104.226 92.7981C104.22 92.4297 103.226 91.5647 103.954 91.2218C104.084 91.1612 104.485 91.4025 104.582 91.3288C104.754 91.1996 104.465 90.0182 103.817 89.3158C104.854 89.9631 104.988 89.1267 105.377 89.2216C105.496 89.2516 106.05 89.7726 106.298 89.75C106.5 89.7323 106.34 89.0238 106.549 88.9552C106.773 88.8844 107.282 89.278 107.379 89.2432C107.47 89.21 107.157 88.7922 107.242 88.709C107.515 88.4553 108.345 88.7933 108.561 88.5932C108.876 88.3051 108.045 86.9704 107.808 86.2421C107.941 86.2479 108.236 86.4146 108.303 86.3503C109.138 85.5632 110.242 84.8337 111.279 84.2394C111.759 83.963 114.17 84.4593 111.448 82.2977C111.143 81.7432 113.086 81.7494 113.279 81.5815C113.473 81.4125 113.17 80.8358 113.305 80.6838C113.714 80.2271 114.33 80.2353 114.462 79.3276C114.496 79.0914 114.114 78.4309 114.2 78.3557C114.304 78.2664 114.915 78.658 115.07 78.5635C115.434 78.337 115.823 77.6058 116.191 77.4046C116.26 77.3687 116.724 77.7865 116.937 77.8478C117.765 78.0909 118.046 77.7089 116.565 76.3754C117.745 76.7862 117.34 75.7255 117.643 75.326C118.275 74.4963 119.923 73.4809 119.962 72.2473C119.978 71.4772 119.338 70.8545 120.474 70.7984C120.726 70.7859 121.018 70.8183 121.321 70.8015C122.041 70.7541 123.553 71.5713 122.417 69.8912C123.206 69.8253 123.264 69.2465 124.783 70.1284C124.53 69.8044 124.277 69.4806 124.023 69.1568C124.067 69.0978 124.111 69.039 124.155 68.9805C124.447 69.238 124.74 69.4956 125.032 69.7532C125.464 69.4656 124.799 67.8654 125.112 67.567C125.174 67.5069 125.254 67.4416 125.348 67.3736C126.065 66.8413 127.504 66.1579 128.278 66.0367C128.736 65.9732 128.159 65.3722 129.516 66.437C129.492 66.2926 129.467 66.1486 129.442 66.005C129.214 65.7026 128.986 65.4004 128.758 65.0982C129.08 64.7561 129.897 64.7635 130.207 64.4471C130.787 63.853 130.941 62.2483 132.01 62.1485C132.284 62.1189 133.007 62.4928 133.145 62.3454C133.357 62.1215 132.507 61.1577 132.763 60.8748C133.202 60.3922 135.135 60.6016 135.519 60.086C135.629 59.9368 135.374 59.5216 135.437 59.3933C135.705 58.8461 136.062 58.5693 136.075 57.5845C137.452 58.0311 138.418 59.3064 139.559 60.4491C139.973 60.8922 140.743 61.5817 141.266 62.4198C141.518 62.8368 141.711 63.316 141.536 63.809C141.39 64.3273 140.489 64.6763 140.051 64.7744C139.762 64.8696 139.708 65.0617 139.847 65.3308C139.969 65.5967 140.402 65.9196 140.717 66.1544C141.434 66.6348 142.05 66.9645 141.343 67.4475C142.565 67.3967 142.991 67.181 143.29 67.1051C143.593 67.0056 143.729 66.9545 143.85 66.9095C144.064 66.8316 144.135 66.8039 144.179 66.7783C144.256 66.7314 144.197 66.6917 144.096 66.6182C143.888 66.4745 143.48 66.206 142.939 65.9141C142.37 66.4773 141.716 67.1619 141.071 67.8446C140.703 67.5791 140.332 67.3154 139.96 67.0533C139.959 67.0526 139.959 67.0519 139.958 67.0512C139.331 66.9399 140.031 67.8649 140.069 68.1915C140.468 71.2876 136.463 72.5117 134.777 73.8055C134.457 74.0518 133.955 75.2095 133.324 75.2981C133.241 75.3069 133.157 75.2963 133.07 75.261C132.88 75.1836 132.376 74.7136 132.295 74.7523C132.046 75.5846 131.807 76.4088 131.555 77.2469C129.686 77.6153 129.183 79.3861 128.189 80.6335C125.503 84.0054 122.923 87.4233 119.854 90.3302C119.261 90.8908 118.907 91.9928 118.11 92.3325C117.778 92.4752 116.889 91.8015 117.173 92.691C116.957 92.4861 116.74 92.2812 116.524 92.0762C116.514 92.6012 116.829 93.2499 116.579 93.6051C116.368 93.9034 115.732 94.6181 115.428 94.7668C115.272 94.8455 114.916 94.4122 114.81 94.5247C114.632 94.7203 114.789 95.6624 114.535 95.9232C114.305 96.159 113.456 96.1101 113.345 96.3569C112.944 97.2408 112.927 98.6208 112.067 99.1381C111.826 99.2814 111.067 99.0252 111.023 99.0996C110.938 99.2468 111.406 99.7719 111.393 99.914C111.33 100.631 110.116 100.682 109.71 101.05C108.378 102.261 107.268 103.837 105.927 105.024C105.08 105.776 103.853 107.207 102.747 107.582C102.509 107.662 102.004 107.079 101.869 107.217C101.721 107.369 102.012 107.813 101.973 107.913C101.71 108.602 101.043 110.031 100.206 110.126C100.047 110.142 99.5558 109.783 99.5065 109.836C99.4807 109.863 99.7157 110.21 99.6655 110.321C99.4248 110.853 99.0961 111.219 98.7411 111.516C98.4209 111.788 98.0785 112.013 97.7114 112.293C96.161 113.485 95.1433 115.601 93.4058 116.752C93.0382 116.992 91.9666 116.378 91.9362 116.425C91.8595 116.535 92.3599 117.168 92.2997 117.506C92.1005 118.621 90.6037 118.894 90.2228 119.813C90.0376 120.264 90.2656 121.448 90.0386 121.957C89.8791 122.351 88.7951 122.753 88.8417 123.273C88.8914 123.577 89.355 124.314 89.2583 124.521ZM88.7537 106.358C89.6965 107.375 89.3127 106.125 88.6203 105.768C88.464 105.688 88.5082 106.094 88.7537 106.358ZM111.111 86.9467C110.824 86.6744 110.537 86.4022 110.249 86.1299C110.309 86.3042 110.369 86.4785 110.429 86.6529C110.632 86.7857 110.835 86.9185 111.038 87.0514C111.062 87.0165 111.087 86.9816 111.111 86.9467Z" fill="white"/>
<path d="M140.244 49.0833C140.258 48.9867 140.305 49.5039 140.328 49.5303C140.421 49.6463 140.469 50.004 140.56 50.204C140.694 50.5013 141.011 49.802 141.207 53.4009C141.207 53.401 141.207 53.401 141.207 53.4011C141.209 53.4364 141.211 53.4721 141.213 53.5082C141.249 54.194 141.257 54.9443 141.293 55.72C141.33 56.4961 141.601 61.5041 141.566 61.7883C141.512 62.1633 141.274 60.8877 141.239 60.9465C141.215 60.987 141.205 61.4439 141.176 61.5264C141.079 61.7923 141.007 61.4618 140.965 62.7035C140.896 62.0533 140.828 61.403 140.761 60.7526C140.723 61.0572 140.61 60.2004 140.582 60.249C140.558 60.289 140.565 60.8052 140.539 60.8303C140.511 60.8613 140.443 60.3065 140.393 60.3923C140.312 60.5306 140.345 61.8766 140.298 62.0495C140.248 62.2283 140.137 61.5001 140.081 61.976C140.077 62.1243 140.073 62.2726 140.069 62.421C140.087 62.7555 140.104 63.0901 140.122 63.4246C140.091 63.5817 140.052 62.8961 140.019 62.8848C139.979 62.871 139.98 63.5222 139.953 63.52C139.931 63.5177 139.885 62.997 139.858 63.0305C139.818 63.0767 139.85 63.8296 139.831 63.9712C139.825 64.0262 139.67 64.4465 139.66 64.4527C139.59 64.4843 139.557 63.4535 139.499 63.3647C139.337 63.1228 139.195 63.9593 139.054 64.2769C138.991 64.419 138.921 64.3602 138.853 64.1963C138.912 61.5556 138.662 59.5049 138.805 63.6335C138.724 63.047 138.688 64.1626 138.617 63.9749C138.571 63.8524 138.534 63.2801 138.471 63.2957C138.361 63.3271 138.245 64.9557 138.197 62.0136C138.07 62.533 137.956 61.4658 137.911 64.0633C137.876 64.222 137.788 62.6748 137.752 62.4645C137.716 62.2667 137.448 61.5668 137.404 61.5272C137.36 61.4879 137.284 61.4447 137.244 61.6722C137.195 61.9536 137.125 64.6467 137.083 61.4963C136.982 61.7498 136.948 61.6591 136.864 61.2917C136.849 61.2252 136.856 60.7576 136.846 60.7571C136.827 60.7567 136.787 61.1016 136.751 61.143C136.693 61.2108 136.681 60.2264 136.655 61.729C136.611 61.98 136.566 62.231 136.521 62.482C136.515 62.1917 136.508 61.9014 136.502 61.6111C136.474 61.9266 136.445 62.242 136.416 62.5575C136.496 60.3843 136.319 61.6632 136.331 62.9118C136.268 62.46 136.205 62.0081 136.145 61.5561C136.235 59.0862 135.994 61.2657 135.959 62.6091C135.951 62.6068 135.942 62.6046 135.933 62.6023C135.881 61.9431 135.791 62.4774 135.717 62.0332C135.642 61.5889 135.661 61.3488 135.682 60.2118C135.658 60.276 135.635 60.3401 135.611 60.4043C135.359 63.5126 135.627 58.1236 135.326 60.5024C135.364 58.5432 135.17 59.5634 135.036 60.1506C135.021 60.2188 134.999 60.5984 134.977 60.7146C134.951 60.8503 134.922 60.8035 134.89 60.8601C134.857 60.92 134.822 61.0954 134.786 61.7246C134.773 61.3684 134.761 61.0122 134.75 60.656C134.71 60.8769 134.668 61.0977 134.626 61.3184C134.602 61.7005 134.578 62.0825 134.553 62.4646C134.58 61.159 134.462 61.6536 134.44 61.3394C134.435 61.2758 134.469 60.7488 134.453 60.6033C134.435 60.4307 134.367 60.5826 134.343 60.4155C134.287 60.9979 134.231 61.5804 134.175 62.1628C134.085 62.4745 134.174 60.9328 134.146 60.8104C134.14 60.7891 134.007 60.8903 133.998 60.9226C133.923 61.1788 133.836 62.4916 133.695 62.1977C133.671 62.1446 133.685 61.6891 133.66 61.6687C133.618 61.6322 133.394 62.6493 133.302 63.5987C133.347 62.4044 133.157 62.8778 133.144 62.5303C133.14 62.4235 133.204 61.6658 133.179 61.501C133.159 61.3668 133.022 61.9657 132.991 61.8605C132.958 61.7461 133.001 61.1086 132.986 61.0619C132.972 61.0184 132.908 61.5304 132.884 61.5251C132.809 61.5002 132.818 60.6673 132.76 60.6465C132.676 60.6145 132.457 62.1273 132.32 62.7952C132.312 62.695 132.326 62.3671 132.308 62.3624C132.083 62.2926 131.861 61.9885 131.677 61.643C131.592 61.4841 131.533 59.3979 131.289 62.8479C131.202 63.448 131.089 62.0387 131.045 62.0142C131.002 61.9898 130.917 62.605 130.883 62.6114C130.78 62.6303 130.74 62.1792 130.582 62.7093C130.541 62.8479 130.46 63.5786 130.443 63.569C130.425 63.557 130.443 62.9817 130.428 62.8315L130.628 62.8411C130.625 62.8242 130.622 62.8128 130.618 62.8081C130.532 62.7033 130.361 62.9314 130.279 62.8055C130.264 62.781 130.281 62.1574 130.266 61.9617C130.207 61.1974 130.111 61.2598 130.052 63.2507C129.982 62.1166 129.842 63.1432 129.733 63.202C129.508 63.322 129.125 62.8389 128.885 63.664C128.733 64.1847 128.686 65.0768 128.542 64.2967C128.51 64.1237 128.483 63.8911 128.444 63.6846C128.353 63.1984 128.354 61.5451 128.137 63.5237C128.04 63.0007 127.907 63.3582 127.932 61.6551C127.892 62.0611 127.852 62.4672 127.811 62.8732C127.794 62.8821 127.777 62.891 127.76 62.8999C127.783 62.5115 127.806 62.1232 127.83 61.7349C127.725 61.6223 127.456 63.2051 127.355 63.1852C127.187 63.1543 126.8 62.4958 126.693 61.9567C126.635 61.6707 126.543 62.4987 126.673 60.7904C126.642 60.9069 126.611 61.0234 126.58 61.1399C126.528 61.5115 126.476 61.883 126.423 62.2545C126.307 62.2572 126.239 61.6632 126.131 61.6562C125.938 61.6456 125.487 62.6269 125.367 61.9234C125.338 61.7462 125.39 60.9718 125.339 60.9726C125.262 60.9726 125.039 62.2366 124.933 62.2432C124.741 62.2514 124.683 60.7242 124.497 60.801C124.439 60.8227 124.316 61.2846 124.268 61.3265C124.064 61.5062 123.945 61.4388 123.597 62.1125C123.712 60.8728 124.145 59.3442 124.518 57.7861C124.794 56.6084 125.491 53.8939 125.789 52.8779C125.994 52.1628 126.266 51.2452 126.489 50.4575C126.674 49.8302 126.479 50.5234 126.247 51.6527C126.336 51.6273 126.448 51.6042 126.571 51.5802C126.501 52.0217 126.432 52.4635 126.366 52.9056C126.365 52.9066 126.365 52.9075 126.365 52.9085C126.329 53.426 126.551 52.2962 126.62 52.0429C127.252 49.6157 127.491 51.6176 127.853 51.9341C127.925 52.0014 128.224 51.423 128.22 52.1506C128.218 52.3402 128.167 53.0274 128.179 53.0585C128.349 52.661 128.516 52.2625 128.678 51.863C128.885 52.9508 129.242 52.086 129.536 51.9359C130.024 51.6902 130.511 51.4035 130.995 51.256C131.022 51.2323 131.145 51.2874 131.172 51.2645C131.569 51.1836 131.95 51.1693 132.301 51.266C132.473 51.3144 132.737 50.8205 132.868 51.1674C132.922 51.3113 132.845 52.4157 133.011 51.603C132.983 51.8999 132.956 52.1968 132.928 52.4937C133.039 52.1426 133.152 51.4719 133.242 51.4113C133.318 51.3614 133.507 51.3349 133.556 51.454C133.582 51.5137 133.517 52.0673 133.547 52.0672C133.598 52.0631 133.776 51.3061 133.843 51.3122C133.904 51.3179 133.948 51.9664 134.003 51.878C134.202 51.5645 134.459 50.6317 134.607 50.8994C134.647 50.9751 134.651 51.7001 134.668 51.6811C134.7 51.6415 134.763 50.9425 134.789 50.854C134.919 50.4068 135.007 51.2494 135.101 51.2888C135.215 51.3374 135.333 51.3268 135.454 51.3024C135.651 51.2618 135.852 51.1831 136.038 51.2716C136.228 51.3611 136.553 51.2485 136.722 51.7805C136.758 51.8954 136.729 52.6638 136.762 52.6646C136.8 52.6653 136.832 52.1465 136.85 52.1049C136.977 51.8139 137.245 51.2932 137.351 51.8251C137.371 51.9273 137.381 52.5298 137.394 52.5277C137.401 52.5278 137.42 52.1169 137.441 52.075C137.626 51.7047 137.755 51.9449 137.935 52.0857C138.282 52.3523 138.671 51.5828 139.043 51.9885C139.124 52.0767 139.208 53.2666 139.219 53.2543C139.244 53.2296 139.24 52.428 139.285 52.2289C139.433 51.5741 139.681 52.4221 139.828 52.0149C139.899 51.8144 139.969 50.7937 140.035 50.5658C140.087 50.3837 140.247 50.7766 140.255 50.3291C140.26 50.0588 140.23 49.1925 140.244 49.0833ZM138.398 62.6274C138.399 61.2416 138.273 62.3943 138.33 63.1377C138.343 63.3052 138.398 62.9872 138.398 62.6274ZM132.238 59.9177C132.201 60.3119 132.164 60.706 132.128 61.1001C132.16 60.9377 132.192 60.7753 132.224 60.6129C132.237 60.3752 132.251 60.1374 132.264 59.8997C132.256 59.9057 132.247 59.9117 132.238 59.9177Z" fill="white"/>
<path d="M136.828 54.7932C136.764 54.7166 136.941 55.2059 136.928 55.2419C136.871 55.4003 136.997 55.7399 137.026 55.9546C137.064 56.2738 136.537 55.8036 138.549 58.7948C138.549 58.7949 138.549 58.7949 138.549 58.795C138.569 58.8245 138.588 58.8544 138.608 58.8847C138.986 59.4581 139.386 60.0921 139.805 60.7458C140.224 61.4 142.961 65.6033 143.049 65.8818C143.156 66.2553 142.267 65.289 142.254 65.3606C142.241 65.4134 142.422 65.8344 142.412 65.9325C142.374 66.2496 142.153 65.9885 142.513 67.1889C142.161 66.6334 141.824 66.0694 141.504 65.4971C141.544 65.8104 141.097 65.0631 141.075 65.1223C141.053 65.1726 141.214 65.6638 141.178 65.7024C141.139 65.7489 140.882 65.2492 140.828 65.3553C140.739 65.5264 141.095 66.8245 141.032 67.0203C140.963 67.224 140.62 66.5564 140.591 67.0474C140.606 67.1959 140.619 67.3446 140.631 67.4934C140.714 67.8182 140.799 68.1426 140.885 68.4666C140.833 68.6375 140.658 67.9725 140.585 67.9741C140.501 67.9753 140.573 68.6234 140.511 68.6311C140.46 68.6368 140.31 68.1325 140.259 68.1734C140.18 68.2307 140.306 68.9736 140.275 69.1204C140.263 69.1791 139.937 69.636 139.915 69.6424C139.755 69.6872 139.661 68.6595 139.546 68.5774C139.238 68.3523 138.981 69.1901 138.719 69.502C138.603 69.6415 138.491 69.5784 138.394 69.4095C138.631 66.7773 138.435 64.7133 138.357 68.844C138.282 68.2524 138.15 69.3616 138.06 69.1667C138.007 69.0398 138.009 68.4658 137.927 68.4743C137.79 68.4938 137.465 70.0968 137.739 67.1669C137.541 67.6676 137.561 66.5946 137.186 69.1653C137.126 69.3178 137.235 67.7717 137.231 67.5589C137.218 67.3578 137.073 66.6308 137.043 66.5863C137.01 66.5418 136.953 66.4899 136.885 66.7098C136.804 66.9823 136.332 69.6346 136.778 66.516C136.657 66.7543 136.64 66.66 136.633 66.2874C136.632 66.22 136.71 65.7591 136.703 65.7574C136.688 65.7548 136.603 66.0906 136.568 66.1273C136.511 66.1872 136.658 65.2141 136.399 66.6943C136.325 66.9371 136.251 67.1798 136.176 67.4223C136.218 67.135 136.259 66.8478 136.301 66.5605C136.229 66.8687 136.156 67.1767 136.083 67.4846C136.494 65.3491 136.154 66.5913 135.961 67.8246C135.987 67.3718 136.014 66.9192 136.042 66.4667C136.17 65.7991 136.223 65.4759 136.227 65.3856C136.24 65.1479 135.911 66.5277 135.735 67.4859C135.729 67.4828 135.723 67.4797 135.718 67.4766C135.787 66.821 135.634 67.3387 135.653 66.8932C135.672 66.4477 135.724 66.2127 135.923 65.0933C135.896 65.1542 135.868 65.2152 135.841 65.2761C135.157 68.3179 136.22 63.0278 135.62 65.3459C135.961 63.4165 135.659 64.4052 135.47 64.9729C135.448 65.0388 135.372 65.4114 135.338 65.5241C135.255 65.7949 135.286 65.3025 135.043 66.5045C135.091 66.152 135.138 65.7996 135.186 65.4473C135.123 65.6618 135.059 65.8763 134.994 66.0907C134.917 66.4657 134.84 66.8407 134.763 67.2157C134.987 65.9298 134.827 66.4086 134.86 66.0969C134.867 66.0338 134.973 65.5164 134.984 65.3716C134.997 65.1998 134.926 65.3445 134.934 65.1776C134.805 65.7483 134.675 66.3189 134.546 66.8894C134.435 67.1904 134.735 65.6758 134.733 65.5528C134.733 65.5314 134.622 65.6216 134.611 65.6528C134.518 65.9003 134.258 67.1899 134.204 66.8904C134.195 66.8363 134.273 66.3876 134.259 66.3659C134.233 66.3268 133.923 67.3162 133.716 68.2473C133.926 67.0715 133.721 67.5265 133.763 67.1827C133.776 67.077 133.933 66.3331 133.939 66.1689C133.945 66.035 133.758 66.6176 133.75 66.5118C133.743 66.3967 133.867 65.7699 133.863 65.7228C133.859 65.679 133.738 66.1805 133.721 66.1738C133.67 66.1443 133.797 65.3224 133.757 65.2981C133.699 65.2611 133.319 66.7408 133.122 67.3915C133.13 67.2919 133.187 66.969 133.174 66.9631C133.014 66.8791 132.885 66.5624 132.787 66.2058C132.741 66.0417 132.999 63.976 132.298 67.3624C132.138 67.9473 132.244 66.5424 132.212 66.5136C132.179 66.4849 132.013 67.0831 131.981 67.0854C131.886 67.0916 131.922 66.6418 131.695 67.1438C131.635 67.2751 131.443 67.9848 131.428 67.9727C131.411 67.9564 131.547 67.2587 131.531 67.2089C131.491 67.0954 131.325 67.2971 131.293 67.1639C131.288 67.138 131.423 66.5289 131.451 66.3353C131.56 65.5788 131.479 65.6281 131.047 67.5723C131.222 66.4526 130.92 67.4416 130.835 67.4868C130.656 67.578 130.485 67.0616 130.166 67.8466C129.963 68.3416 129.763 69.2123 129.816 68.4331C129.827 68.2603 129.852 68.0294 129.866 67.8231C129.898 67.3378 130.202 65.7144 129.691 67.6371C129.724 67.1152 129.572 67.4551 129.897 65.7846C129.796 66.18 129.696 66.5754 129.595 66.9708C129.583 66.9782 129.57 66.9856 129.558 66.993C129.643 66.6135 129.729 66.234 129.814 65.8546C129.763 65.7349 129.304 67.2694 129.242 67.2429C129.14 67.2004 129.007 66.5308 129.03 65.9966C129.04 65.7126 128.844 66.5224 129.21 64.8489C129.17 64.962 129.131 65.0751 129.092 65.1882C128.997 65.5513 128.903 65.9144 128.809 66.2774C128.803 66.2773 128.798 66.2732 128.794 66.2658C128.742 66.1821 128.787 65.6894 128.723 65.6796C128.603 65.6632 128.179 66.6229 128.215 65.934C128.226 65.7608 128.367 64.9993 128.336 65.0007C128.291 65.0021 127.973 66.2457 127.912 66.2553C127.802 66.2688 127.975 64.7758 127.846 64.8607C127.808 64.8849 127.678 65.3447 127.642 65.3881C127.493 65.5758 127.431 65.5201 127.098 66.194C127.258 64.9618 127.702 63.4364 128.126 61.8912C128.291 61.3101 128.537 60.3347 128.899 59.4188C129.089 58.968 129.28 58.5041 129.706 58.2473C129.822 58.1908 129.935 58.1346 130.124 58.151C130.212 58.1557 130.307 58.1701 130.406 58.1963C130.53 58.2455 130.662 58.3157 130.793 58.4058C131.403 58.7653 131.803 59.9478 131.894 60.0818C131.991 60.2292 132.085 60.1837 132.184 60.1924C132.283 60.1879 132.386 60.2133 132.487 60.0858C132.74 59.934 132.698 58.3653 132.251 57.5083C132.111 57.1304 131.94 56.8039 131.846 56.5733C131.784 56.3703 131.747 56.2024 131.748 56.0665C131.758 55.808 131.87 55.6033 132.407 55.7861C131.752 55.2139 131.543 55.1252 131.331 54.9807C131.178 54.88 131.035 54.7971 130.975 54.7546C130.819 54.6537 130.751 54.6023 130.689 54.5572C130.581 54.4745 130.537 54.4389 130.497 54.4223C130.424 54.3923 130.384 54.4481 130.332 54.559C130.234 54.7828 130.111 55.2346 129.976 55.7946C130.052 55.7677 130.196 55.7567 130.326 55.7417C130.23 56.1783 130.135 56.615 130.04 57.0519C130.039 57.0529 130.039 57.0538 130.039 57.0548C129.965 57.5678 130.261 56.4552 130.35 56.2081C130.966 54.486 131.157 55.0864 131.315 55.677C131.37 55.8976 131.422 56.1172 131.485 56.2112C131.535 56.2846 131.879 55.7471 131.757 56.464C131.725 56.6507 131.57 57.3222 131.576 57.3543C131.776 56.9805 131.979 56.6071 132.179 56.233C132.156 57.3274 132.586 56.5196 132.846 56.4104C133.549 56.1143 134.262 55.7198 134.813 56.0118C134.919 56.0693 135.175 55.5972 135.213 55.9467C135.23 56.0917 135.011 57.1767 135.249 56.3846C135.186 56.676 135.122 56.9673 135.059 57.2586C135.189 56.9189 135.369 56.2637 135.443 56.2093C135.505 56.1646 135.647 56.1502 135.666 56.2711C135.677 56.3318 135.55 56.8743 135.572 56.8762C135.611 56.8754 135.852 56.1396 135.902 56.1504C135.947 56.1602 135.889 56.8042 135.943 56.7208C136.139 56.4254 136.472 55.5238 136.552 55.8013C136.574 55.8796 136.471 56.5963 136.487 56.579C136.518 56.5426 136.669 55.8574 136.703 55.7722C136.873 55.3421 136.819 56.1828 136.887 56.2307C137.108 56.3867 137.421 56.1378 137.628 56.3098C137.704 56.3726 137.825 56.3739 137.916 56.469C137.985 56.5384 138.033 56.656 138.048 56.884C138.055 57.0011 137.91 57.7561 137.933 57.7604C137.959 57.7649 138.065 57.2562 138.083 57.2169C138.221 56.943 138.467 56.4524 138.445 56.9864C138.441 57.089 138.356 57.6854 138.364 57.6844C138.368 57.6851 138.44 57.2803 138.458 57.2406C138.617 56.8887 138.641 57.1343 138.701 57.2839C138.828 57.5695 138.952 56.8028 138.829 57.2172C138.802 57.3082 138.856 58.4988 138.857 58.4867C138.854 58.4628 138.798 57.6632 138.759 57.4677C138.614 56.8267 138.58 57.6946 138.386 57.3312C138.288 57.151 137.894 56.205 137.722 56.0259C137.583 55.8816 137.57 56.3153 137.372 55.9147C137.25 55.6733 136.9 54.8804 136.828 54.7932ZM137.901 67.8007C138.038 66.4218 137.783 67.5547 137.769 68.3006C137.767 68.4687 137.866 68.1588 137.901 67.8007ZM133.469 64.5434C133.385 64.9302 133.301 65.3169 133.217 65.7037C133.264 65.5455 133.312 65.3873 133.359 65.2291C133.403 64.9952 133.448 64.7613 133.492 64.5274C133.485 64.5328 133.477 64.5381 133.469 64.5434Z" fill="white"/>
</svg>
