<svg width="147" height="148" viewBox="0 0 147 148" fill="none" xmlns="http://www.w3.org/2000/svg">
<path d="M113.549 123.239C113.691 123.463 113.076 123.857 113.067 124.139C113.024 125.317 112.613 125.788 112.447 126.851C112.357 127.426 112.463 128.405 112.411 129.363C112.364 130.215 112.221 130.976 111.718 132.17C111.41 132.814 111.298 133.577 110.1 135.599C109.489 136.592 108.313 137.572 107.535 137.773C106.744 138.011 106.35 137.806 106.181 137.502C106.181 137.502 106.181 137.502 106.181 137.502C106.16 137.463 106.143 137.421 106.129 137.377C105.964 136.995 106.72 136.036 106.783 135.004C106.838 134.005 106.336 133.603 105.893 133.44C104.979 133.014 98.7191 132.447 98.36 132.733C98.0282 132.679 98.6776 131.292 99.0209 130.51C99.1456 130.219 99.2274 129.987 99.1992 129.878C99.126 129.592 98.5286 129.282 98.3975 128.926C97.9749 127.777 98.3383 127.129 96.703 126.221C97.4781 125.731 98.2524 125.241 99.0251 124.743C98.5974 124.232 99.5871 123.3 99.4942 122.97C99.4184 122.704 98.7601 122.607 98.7011 122.328C98.6312 122.013 99.2727 121.451 99.1054 120.882C98.8339 119.949 97.1412 119.966 96.8647 119.428C96.6291 118.968 97.1268 118.197 96.9349 117.559L96.9459 117.644C96.9014 117.5 96.8246 117.364 96.7008 117.24C96.5042 117.168 96.3076 117.096 96.111 117.025C95.7055 117.15 95.3001 117.276 94.8946 117.402C94.6485 117.039 95.4768 116.761 95.4439 116.402C95.4053 115.976 94.5704 115.871 94.5364 115.59C94.5098 115.363 95.1135 114.956 95.0331 114.661C94.9192 114.232 93.9984 114.452 93.7927 114.241C93.7116 114.153 92.9681 112.482 92.9479 112.382C92.8151 111.646 94.0839 111.405 94.1199 110.799C94.2135 109.11 92.9687 107.54 92.3928 106.043C92.1357 105.378 92.1261 104.656 92.2504 103.935C95.6526 104.637 97.9291 101.957 92.9027 103.441C93.544 102.583 92.0995 102.205 92.2534 101.442C92.3556 100.957 93.0316 100.549 92.9427 99.8729C92.7802 98.6803 90.6298 97.5127 94.2632 96.8279C93.4904 95.3829 94.7388 94.1985 91.4941 93.2106C91.4498 92.9883 91.5173 92.7875 91.7448 92.0311C91.8279 92.4108 91.9953 92.4931 92.1694 92.5368C92.3455 92.5701 92.5381 92.5398 92.72 92.4926C93.084 92.3922 93.4061 92.2196 93.4963 92.1153C93.7612 91.9422 94.2719 89.2851 94.2229 88.8324C94.1978 88.4016 94.105 87.6301 93.7532 87.3288C93.3118 86.9243 89.9613 87.3398 93.6291 85.6886C93.1065 84.8105 93.1351 84.4426 93.3634 83.4476C93.404 83.2663 93.9666 83.107 93.9433 83.0108C93.8924 82.8055 93.3942 82.5949 93.2523 82.2543C93.0214 81.7029 94.1237 81.0657 92.3245 81.6088C91.9182 81.3049 91.5175 81.0288 91.1098 80.7333C91.4229 80.5045 91.7359 80.2762 92.0493 80.0499C91.6135 79.9575 91.1771 79.8647 90.74 79.7714C93.4227 79.2633 91.4754 78.2929 90.1088 79.1847C90.4391 78.302 90.7628 77.419 91.0804 76.5343C94.0678 75.7314 90.923 74.8231 89.3669 75.4803C89.343 75.3967 89.319 75.3127 89.2948 75.2285C89.8486 74.2612 88.9924 73.7976 89.2235 72.7467C89.449 71.6833 89.7633 71.679 91.0166 70.9492C90.8734 70.7719 90.7295 70.5934 90.5847 70.4138C90.5794 70.4074 90.5741 70.401 90.5688 70.3945C86.5139 70.5951 92.9493 68.5432 89.4581 67.6857C91.5402 66.2475 89.776 65.2082 88.7077 64.5198C88.5835 64.4388 88.1401 64.6098 87.9454 64.5149C87.476 64.2812 87.6723 63.1283 86.2628 63.7333C86.5462 63.2497 86.8276 62.7645 87.1067 62.2763C86.7417 62.1214 86.3765 61.9676 86.0112 61.8157C85.5701 62.0012 85.1289 62.1866 84.6878 62.372C85.9775 61.2257 85.0513 60.6491 85.2364 60.0952C85.2745 59.9839 85.8732 59.705 85.9299 59.3833C85.9992 59.0057 85.582 58.5409 85.616 58.1105C84.8879 58.2726 84.1605 58.4369 83.4338 58.6032C82.799 58.1573 84.4583 57.1459 84.4286 56.7209C84.4237 56.6443 83.7488 55.5217 83.6803 55.4767C83.1385 55.0983 81.7292 55.9468 81.3313 54.3261C81.2602 54.0366 81.6656 53.5729 81.5684 53.3266C81.397 52.8845 79.6117 52.2283 78.5047 52.6879C79.5762 51.5071 78.335 50.4801 78.5028 49.8964C78.5559 49.7182 79.3741 49.2321 79.3519 48.7763C79.3417 48.5416 78.8964 48.3025 78.5525 48.0591C78.3533 47.9141 78.1867 47.7664 78.1499 47.6106C78.0447 47.1518 78.6515 46.6086 78.5979 46.4056C78.5458 46.2132 77.9002 46.3873 77.7714 46.1633C77.3773 45.4558 77.8805 44.2884 77.556 43.7298C77.0874 42.9186 75.0367 43.2564 73.9187 43.0984C73.9209 42.8765 74.1596 42.4949 74.0542 42.3302C72.7621 40.2795 71.4606 37.9073 70.2703 35.9038C69.7599 34.9726 69.7345 31.2965 67.2051 34.8809C67.0541 34.9448 66.9131 34.8794 66.7872 34.7408C66.127 34.0318 65.4486 31.9022 65.1285 31.5962C64.7343 31.2123 63.9001 31.5142 63.5734 31.2489C62.5873 30.4513 62.2453 29.4398 60.6413 29.0535C60.2263 28.957 59.3517 29.4496 59.1812 29.3107C58.9774 29.1416 59.2664 28.2535 59.0147 28.0055C58.4105 27.4124 56.9915 26.8299 56.4257 26.3202C56.3229 26.2238 56.6807 25.5291 56.628 25.2158C56.4234 23.99 55.5747 23.6436 54.5689 25.927C54.3755 24.2315 53.0078 25.0233 52.2446 24.8068C52.0652 24.7545 51.8731 24.6904 51.6729 24.6207C49.5901 23.8506 46.4371 22.5705 45.8896 23.5214C45.7491 23.7447 45.7564 24.0479 45.8262 24.2853C45.608 24.7089 45.2929 24.9413 44.2749 24.3779C43.92 24.1836 43.535 23.9198 43.079 23.6997C42.0042 23.1815 40.7594 21.2414 40.2402 23.8101C38.9647 23.319 38.1042 23.9121 36.8557 21.9639C36.8341 22.4843 36.8138 23.0047 36.795 23.5251C36.6509 23.5624 36.5049 23.6005 36.3588 23.6391C36.2294 23.1682 36.099 22.6974 35.9676 22.2269C34.8632 22.2887 33.9196 24.5197 33.0471 24.7004C31.5717 24.9786 27.6041 25.2383 26.015 25.0755C25.5958 25.0251 25.4519 25.2523 25.2814 25.2556C25.1051 25.2606 24.9039 25.0387 24.3539 24.0896C24.2324 24.2865 24.109 24.4846 23.993 24.6807C24.0415 25.159 24.0857 25.639 24.1368 26.1168C23.2241 26.4467 21.9292 26.1482 21.18 26.4747C20.4964 26.7688 19.8588 27.4409 19.4919 27.9338C19.1014 28.4422 19.0501 28.6657 18.6083 28.5272C18.3945 28.447 17.4976 28.0352 17.4076 28.2108C17.3503 28.3236 17.6444 28.58 17.9619 28.8243C18.2411 29.2092 18.5328 29.6052 18.3732 29.977C17.8399 31.19 15.1285 32.75 14.7977 34.0106C14.6979 34.3787 15.1923 34.7577 15.1621 35.0174C15.0407 36.1162 14.703 36.9392 15.304 38.1124C13.5484 38.6065 11.67 37.9973 9.64465 37.8195C8.12346 37.7627 4.49513 37.4105 3.13362 38.5979C2.6786 38.9566 2.12435 38.4421 1.60905 38.1004C1.08415 37.8161 0.560281 37.5276 0.0218529 37.7564C0.00585703 36.9445 -0.00624553 36.7197 0.00353782 36.396C0.00931479 36.119 0.0354438 35.8916 0.0810585 35.6867C0.169868 35.2892 0.331828 35.0002 0.56137 34.741C1.01853 34.2336 1.73284 33.8952 2.62437 33.4781C3.33702 31.108 4.15317 28.8922 5.05128 26.6952C5.65013 26.7206 6.24545 26.756 6.8426 26.7892C6.84371 26.7897 6.84483 26.7902 6.84594 26.7907C7.79636 26.2472 6.64914 25.3066 6.56081 24.7255C6.48658 24.2412 6.46807 23.7447 6.50345 23.2315C6.91045 20.1582 10.3335 16.5379 13.3208 15.2595C16.3307 13.8195 19.027 13.4084 21.3029 12.9813C22.4283 12.7767 23.4534 12.6019 24.3557 12.4073C25.424 12.1569 28.7476 10.5386 29.6946 11.2731C29.9378 11.4605 30.1779 12.2895 30.3848 12.2821C32.0759 11.384 33.8008 10.5345 35.5751 9.73613C39.0593 10.3671 42.1422 9.33683 45.9051 8.96148C46.8053 8.91253 47.586 8.95385 48.2996 9.03428C51.6775 9.46962 54.1128 10.2391 56.6417 10.9839C65.1125 13.7039 71.5167 18.8426 76.8831 24.0208C76.955 24.0908 77.0267 24.1613 77.0983 24.2322C78.7203 25.8284 80.9969 27.4754 81.9374 29.3519C82.3309 30.1345 81.436 31.2379 82.914 31.501C82.6208 31.7314 82.3275 31.9617 82.0341 32.1918C82.9526 32.683 83.9978 32.6872 84.6732 33.5125C85.2464 34.205 86.5805 36.1362 86.8688 36.8714C87.0239 37.2507 86.3535 37.4931 86.5546 37.8077C86.9019 38.3393 88.4354 39.0033 88.8844 39.7647C89.1759 40.2561 89.2469 41.1826 89.4059 41.8494C89.4721 42.1231 89.5531 42.3538 89.6704 42.4937C91.1196 44.2241 93.3016 45.8306 94.0552 48.0928C94.2619 48.7177 93.8072 49.8591 93.9161 50.0301C94.1325 50.363 94.9758 50.0951 95.1916 50.2889C96.288 51.2762 96.2046 53.6294 96.6856 54.8504C98.2222 58.7235 100.154 62.6923 101.395 66.6963C101.432 66.8148 101.468 66.9329 101.504 67.0504C102.283 69.6065 103.774 73.8434 103.802 76.4378C103.81 76.9943 102.843 77.1046 102.964 77.5457C103.098 78.0319 103.79 78.1085 103.904 78.3314C104.688 79.7944 106.173 83.1974 105.821 84.8989C105.756 85.2234 105.056 85.5699 105.094 85.753C105.111 85.8436 105.655 85.9508 105.758 86.2204C106.165 87.2997 106.383 88.3014 106.499 89.327C106.558 89.8547 106.591 90.3766 106.605 90.9612C106.612 91.2608 106.614 91.5597 106.608 91.9244C106.595 92.3092 106.613 92.5758 106.511 93.5318C106.528 93.2195 106.506 93.2522 106.497 93.268C106.486 93.2952 106.477 93.3667 106.47 93.4505C106.329 97.1346 107.934 102.358 107.966 106.865C107.978 107.873 106.586 108.727 106.619 108.872C106.688 109.171 107.706 109.234 108.032 109.828C108.999 111.582 108.529 114.126 108.996 115.997C109 116.015 109.003 116.069 109.007 116.087C109.055 116.295 109.113 116.493 109.185 116.681C109.55 117.648 110.97 118.879 111.355 119.838C111.666 120.608 111.357 122.52 111.945 122.818C112.302 123 113.389 122.992 113.549 123.239ZM93.701 99.0647C95.4378 99.0343 93.8612 97.6923 92.9894 98.3368C92.7931 98.4869 93.2497 99.0724 93.701 99.0647ZM74.6675 37.9068C74.2755 38.2089 73.8834 38.511 73.4909 38.8125C73.7599 38.8318 74.0302 38.854 74.3018 38.8791C74.4847 38.6239 74.667 38.3683 74.8487 38.112C74.7882 38.0432 74.7282 37.9754 74.6675 37.9068Z" fill="#76B4FF"/>
<path d="M113.086 121.185C113.232 121.165 112.839 121.694 112.88 121.788C113.046 122.189 112.813 122.6 112.861 123.03C112.938 123.675 114.543 124.187 111.187 127.194C111.187 127.194 111.187 127.194 111.187 127.194C111.154 127.223 111.121 127.253 111.087 127.283C110.445 127.853 109.667 128.388 108.932 129.024C108.198 129.659 103.543 133.859 103.166 133.966C102.654 134.091 103.453 132.577 103.313 132.528C103.217 132.495 102.721 132.797 102.571 132.781C102.087 132.734 102.265 132.312 100.916 133.132C101.431 132.488 101.944 131.842 102.455 131.193C102.067 131.332 102.682 130.416 102.57 130.385C102.479 130.361 101.982 130.774 101.905 130.737C101.866 130.72 101.921 130.599 101.98 130.464C102.054 130.291 102.142 130.103 102.056 130.1C101.807 130.093 100.671 131.339 100.488 131.462C100.306 131.596 100.758 130.782 100.255 131.143C100.126 131.276 99.9965 131.41 99.8671 131.544C99.624 131.886 99.3795 132.226 99.1335 132.565C98.9569 132.675 99.4497 131.972 99.3934 131.91C99.3258 131.835 98.8016 132.46 98.748 132.415C98.7083 132.381 99.0281 131.807 98.9404 131.794C98.8165 131.774 98.2844 132.551 98.1314 132.658C98.0734 132.7 97.3949 132.855 97.3632 132.843C97.1757 132.756 97.8944 131.686 97.8191 131.496C97.6005 130.97 96.5904 131.541 95.9859 131.606C95.7248 131.642 95.5747 131.45 95.5259 131.168C97.6424 128.616 98.4719 126.079 95.815 130.514C96.0257 129.77 95.1213 130.842 95.0648 130.52C95.0258 130.309 95.3503 129.665 95.1674 129.565C94.8355 129.389 93.3853 130.868 95.3296 127.744C94.6201 128.05 95.0367 126.726 93.117 129.349C92.9167 129.454 93.7383 127.678 93.7844 127.394C93.804 127.26 93.7485 126.893 93.6662 126.535C93.5917 126.176 93.4917 125.828 93.4407 125.765C93.3365 125.638 93.1536 125.453 92.8897 125.62C92.5637 125.827 90.6067 128.57 92.5457 125.132C92.0987 125.218 92.0623 125.059 92.0557 124.506C92.056 124.407 92.3736 123.916 92.3473 123.898C92.2926 123.862 91.9605 124.16 91.8324 124.138C91.6219 124.102 92.2068 123.014 91.1877 124.592C90.9048 124.783 90.6226 124.974 90.343 125.166C90.506 124.839 90.6688 124.512 90.8315 124.185C90.5562 124.477 90.2806 124.768 90.0048 125.059C91.5744 122.838 90.281 123.906 89.5518 125.294C89.6506 124.684 89.7598 124.082 89.8602 123.474C91.5957 120.918 89.5974 122.872 88.7125 124.301C88.6903 124.283 88.668 124.266 88.6457 124.248C88.8923 123.427 88.3282 123.858 88.3777 123.23C88.4302 122.604 88.6194 122.369 89.3267 121.133C89.2221 121.161 89.1174 121.189 89.0125 121.217C86.5472 124.257 90.3256 118.67 88.1405 120.808C89.3177 118.651 88.1867 119.445 87.4969 119.879C87.4167 119.929 87.1542 120.325 87.0299 120.419C86.7288 120.642 86.7938 119.953 85.9592 121.239C86.1102 120.807 86.261 120.376 86.4115 119.943C86.1813 120.126 85.9511 120.308 85.7207 120.49C85.4577 120.889 85.1946 121.289 84.9316 121.689C85.6741 120.225 85.0871 120.589 85.1825 120.184C85.2022 120.103 85.5603 119.548 85.5854 119.349C85.6165 119.114 85.3476 119.17 85.3574 118.93C84.9151 119.514 84.4728 120.099 84.0305 120.683C83.6285 120.893 84.6252 119.239 84.5993 119.042C84.5943 119.008 84.1621 118.889 84.1201 118.911C83.7833 119.081 82.9249 120.484 82.6658 119.892C82.6201 119.786 82.8669 119.268 82.8064 119.201C82.6996 119.081 81.6037 119.906 80.9201 120.883C81.5823 119.533 80.8293 119.769 80.9423 119.328C80.9778 119.193 81.4897 118.392 81.4861 118.148C81.4837 117.949 80.8287 118.43 80.7808 118.247C80.7318 118.049 81.1236 117.351 81.0984 117.267C81.0742 117.189 80.6733 117.697 80.6033 117.647C80.3909 117.482 80.7536 116.48 80.586 116.348C80.345 116.155 79.077 117.607 78.401 118.178C78.4152 118.04 78.5859 117.662 78.5321 117.623C77.8733 117.124 77.2841 116.324 76.8114 115.533C76.5906 115.168 77.1867 112.473 75.0678 116.249C74.5467 116.813 74.676 114.828 74.5329 114.705C74.3919 114.585 73.8534 115.161 73.7265 115.094C73.342 114.889 73.3815 114.253 72.5761 114.542C72.3658 114.618 71.7524 115.316 71.6903 115.265C71.6165 115.2 72.0019 114.394 71.9262 114.279C71.7432 114.013 71.1105 113.961 70.9536 113.682C70.9257 113.63 71.3222 112.958 71.3872 112.711C71.6409 111.747 71.32 111.645 70.0555 113.79C70.4912 112.397 69.5088 113.305 69.1814 113.197C68.4785 112.952 67.6577 111.774 66.596 112.36C65.9737 112.7 65.4455 113.55 65.3826 112.799C65.375 112.737 65.3702 112.664 65.3686 112.579C65.3637 112.328 65.3974 112.014 65.3909 111.715C65.3824 111.015 66.1159 109.055 64.6288 111.067C64.6061 110.309 64.0864 110.537 64.8832 108.544C64.5992 108.969 64.3156 109.394 64.0323 109.82C63.9832 109.806 63.9355 109.793 63.8842 109.779C64.1112 109.348 64.3381 108.918 64.565 108.488C64.3083 108.191 62.9398 109.713 62.6806 109.551C62.2587 109.286 61.5025 107.982 61.3931 107.179C61.3358 106.752 60.8391 107.668 61.7186 105.71C61.5971 105.814 61.4761 105.918 61.3557 106.023C61.1034 106.419 60.8515 106.816 60.6003 107.213C60.3162 107.083 60.3118 106.258 60.0404 106.125C59.5402 105.881 58.2324 106.664 58.1315 105.672C58.1104 105.424 58.3715 104.477 58.2509 104.431C58.075 104.363 57.3357 105.788 57.1205 105.72C56.7459 105.597 56.8375 103.597 56.4551 103.596C56.346 103.596 56.078 104.131 55.9935 104.166C55.6479 104.322 55.4498 104.199 55.053 105.04C55.4385 103.55 55.9982 101.646 56.4379 99.6912C56.8277 98.2283 57.2011 94.7178 57.0531 93.3701C57.0353 92.4305 57.6312 91.3012 57.6031 90.2652C58.7348 90.027 58.9648 90.1518 59.2079 90.527C59.4207 90.9041 59.474 91.5361 59.5028 92.307C60.4654 92.5811 61.2317 92.848 61.997 93.1248C61.8341 93.6639 61.6697 94.2025 61.5038 94.7406C61.5033 94.7417 61.5028 94.7428 61.5023 94.744C61.5112 95.4558 62.2092 94.1939 62.5003 93.969C65.2637 91.794 66.8045 95.3534 67.9924 96.414C68.258 96.6433 69.6031 96.5289 69.355 97.431C69.292 97.6666 68.885 98.426 68.9224 98.49C69.6752 98.3252 70.4281 98.1638 71.1711 97.9992C71.4275 99.229 72.2674 99.4114 73.1577 99.5723C73.5278 99.6359 73.9231 99.7058 74.254 99.832C77.3131 101.013 80.3263 102.115 82.8343 103.965C83.3177 104.324 84.3079 104.194 84.5741 104.861C84.6862 105.139 84.0216 106.356 84.8507 105.664C84.651 105.979 84.4514 106.294 84.2518 106.609C84.7307 106.383 85.3421 105.768 85.6529 105.867C85.9141 105.951 86.5303 106.286 86.6486 106.533C86.7114 106.658 86.2937 107.218 86.3901 107.276C86.558 107.372 87.4296 106.791 87.653 106.936C87.8553 107.068 87.7577 107.963 87.9763 107.967C88.7608 107.987 90.0211 107.391 90.4425 108.049C90.5576 108.232 90.2719 109.125 90.3375 109.138C90.4671 109.16 90.9788 108.447 91.1084 108.397C91.765 108.146 91.7254 109.368 92.0383 109.624C93.0571 110.457 94.4238 110.901 95.4193 111.753C96.0471 112.29 97.2684 112.914 97.5368 113.883C97.5937 114.092 97.0268 114.869 97.1399 114.944C97.2644 115.026 97.6929 114.532 97.7818 114.527C98.3994 114.496 99.651 114.538 99.6796 115.352C99.6826 115.507 99.3198 116.17 99.3647 116.196C99.3866 116.211 99.7197 115.815 99.817 115.817C100.154 115.828 100.4 115.911 100.6 116.038C100.951 116.26 101.175 116.596 101.497 116.941C102.484 117.996 104.38 118.111 105.346 119.401C105.565 119.688 104.902 121.041 104.95 121.056C105.052 121.09 105.675 120.303 105.995 120.225C107.053 119.974 107.219 121.4 108.243 121.581C108.721 121.642 110.219 121.269 110.799 121.46C110.895 121.488 110.979 121.552 111.044 121.62C111.283 121.87 111.426 122.33 111.812 122.101C112.11 121.926 112.924 121.21 113.086 121.185ZM95.4464 128.746C96.4423 127.328 95.2747 128.279 94.8976 129.146C94.8136 129.341 95.1861 129.113 95.4464 128.746ZM79.2548 114.476C78.9895 114.894 78.7242 115.312 78.4589 115.729C78.6208 115.589 78.7827 115.449 78.9447 115.308C79.0782 115.04 79.2117 114.772 79.3451 114.504C79.315 114.495 79.2849 114.486 79.2548 114.476Z" fill="#76B4FF"/>
<path d="M129.864 79.1103C129.735 79.0964 130.27 79.4725 130.262 79.5697C130.25 79.7007 130.271 79.8467 130.326 79.9511L129.994 80.9255C130.121 81.2099 130.335 81.4852 130.475 81.7557C130.79 82.6404 129.969 81.7214 134.44 81.3692C134.44 81.3692 134.44 81.3692 134.44 81.3692C134.485 81.3662 134.529 81.3634 134.574 81.3607C135.431 81.308 136.373 81.3514 137.343 81.3097C138.313 81.2687 144.57 80.8585 144.933 81.05C145.418 81.3188 143.833 82.2105 143.892 82.4302C143.938 82.5755 144.501 82.7949 144.585 83.0417C144.82 83.7792 144.436 84.2142 145.283 85.2001C145.198 85.3237 145.14 85.792 145.042 85.9054C145.123 86.014 145.215 86.1361 145.319 86.2745C144.431 86.2757 143.557 86.1972 142.729 86.0145C142.91 86.481 141.788 86.2571 141.773 86.3917C141.752 86.5188 142.271 86.9048 142.233 87.0208C142.191 87.1554 141.511 86.9237 141.485 87.1502C141.435 87.5281 142.801 88.5105 142.856 88.8076C142.924 89.0998 141.992 88.8373 142.333 89.381C142.465 89.5142 142.598 89.6477 142.73 89.7815C143.085 90.004 143.441 90.2262 143.797 90.4483C143.876 90.6731 143.15 90.2147 143.07 90.2998C142.977 90.3991 143.597 90.9299 143.538 91.0059C143.491 91.0649 142.906 90.7625 142.883 90.8645C142.847 91.0112 143.629 91.5362 143.727 91.7019C143.757 91.7775 143.867 92.5131 143.85 92.5503C143.736 92.77 142.689 92.0185 142.487 92.1047C141.929 92.3492 142.463 93.3834 142.503 93.9945C142.516 94.2746 142.328 94.4036 142.039 94.4481C139.575 92.2298 137.077 91.2924 141.397 94.1332C140.666 93.8871 141.686 94.8522 141.37 94.8831C141.163 94.905 140.529 94.5586 140.421 94.7365C140.231 95.0583 141.645 96.5678 138.622 94.4696C138.88 95.2115 137.609 94.6857 140.123 96.7471C140.218 96.9512 138.49 96.0348 138.21 95.9718C137.95 95.9075 136.716 96.1047 136.59 96.1919C136.468 96.2748 136.277 96.443 136.433 96.7106C136.625 97.0435 139.264 99.1377 135.937 97.0135C136.004 97.4582 135.853 97.4728 135.31 97.4362C135.212 97.4295 134.739 97.0855 134.72 97.1102C134.682 97.1617 134.963 97.5075 134.936 97.6323C134.891 97.8373 133.837 97.1927 135.358 98.2965C135.537 98.5824 135.719 98.8659 135.899 99.152C135.582 98.9698 135.266 98.7877 134.949 98.6057C135.227 98.8942 135.505 99.1829 135.782 99.4719C133.649 97.7858 134.656 99.1197 135.998 99.9289C135.403 99.7864 134.8 99.6547 134.212 99.5017C131.755 97.6291 133.616 99.7056 134.99 100.672C134.972 100.693 134.954 100.714 134.935 100.734C134.134 100.436 134.534 101.022 133.917 100.928C133.305 100.827 133.079 100.627 131.887 99.8477C131.912 99.9508 131.937 100.054 131.961 100.158C134.869 102.775 129.501 98.69 131.518 100.984C129.439 99.6769 130.186 100.827 130.586 101.532C130.633 101.614 131.013 101.899 131.101 102.027C131.31 102.336 130.629 102.226 131.865 103.134C131.443 102.958 131.021 102.782 130.603 102.6C130.775 102.836 130.947 103.072 131.118 103.308C131.502 103.594 131.886 103.879 132.27 104.165C130.858 103.33 131.194 103.928 130.799 103.806C130.719 103.781 130.186 103.391 129.99 103.352C129.759 103.305 129.803 103.572 129.565 103.546C130.123 104.021 130.681 104.496 131.239 104.972C131.424 105.387 129.84 104.283 129.645 104.293C129.611 104.294 129.481 104.701 129.5 104.744C129.654 105.084 131.004 106.024 130.406 106.237C130.299 106.274 129.797 105.996 129.727 106.051C129.681 106.087 129.758 106.268 129.921 106.521L130.116 106.244C130.417 106.643 130.973 107.226 131.584 107.657C130.244 106.977 130.493 107.707 130.058 107.584C129.924 107.546 129.125 107.031 128.885 107.028C128.69 107.024 129.177 107.669 128.999 107.709C128.806 107.75 128.11 107.355 128.028 107.377C127.951 107.399 128.461 107.798 128.413 107.864C128.254 108.066 127.261 107.69 127.134 107.85C126.949 108.08 128.41 109.334 128.99 109.997C128.853 109.98 128.477 109.808 128.44 109.859C127.965 110.483 127.191 111.039 126.422 111.484C126.067 111.692 123.39 111.075 127.17 113.185C127.741 113.698 125.775 113.546 125.658 113.683C125.542 113.818 126.123 114.35 126.059 114.473C125.865 114.844 125.235 114.797 125.536 115.586C125.616 115.791 126.319 116.398 126.269 116.458C126.207 116.53 125.4 116.144 125.288 116.217C125.027 116.395 124.988 117.008 124.711 117.162C124.659 117.19 123.987 116.792 123.742 116.725C122.784 116.463 122.686 116.777 124.83 118.043C123.439 117.604 124.356 118.571 124.246 118.898C124.008 119.587 122.835 120.382 123.4 121.46C123.759 122.135 124.713 122.716 123.593 122.699C123.345 122.695 123.031 122.654 122.733 122.653C122.032 122.649 120.098 121.857 122.074 123.391C121.315 123.396 121.534 123.914 119.565 123.06C119.982 123.355 120.399 123.651 120.816 123.946C120.801 123.994 120.786 124.044 120.771 124.093C120.347 123.853 119.924 123.613 119.501 123.374C119.203 123.611 120.676 125.033 120.507 125.283C120.226 125.702 118.89 126.405 118.079 126.478C117.652 126.51 118.532 127.068 116.626 126.082C116.724 126.208 116.822 126.334 116.92 126.46C117.303 126.733 117.685 127.006 118.068 127.278C117.914 127.57 117.095 127.517 116.936 127.793C116.815 128.007 116.87 128.414 116.893 128.784C116.911 129.265 116.867 129.704 116.301 129.731C116.042 129.747 115.127 129.392 115.061 129.522C114.966 129.709 116.322 130.567 116.21 130.811C116.021 131.219 114.003 130.958 113.907 131.395C113.878 131.524 114.363 131.875 114.372 131.985C114.423 132.432 114.232 132.656 114.857 133.411C113.361 132.92 111.666 131.889 109.883 130.972C109.209 130.627 108.086 130.066 106.97 129.54C106.413 129.277 105.856 129.024 105.339 128.851C105.079 128.768 104.832 128.694 104.566 128.734C104.324 128.768 103.964 128.882 103.675 129.805C103.588 130.071 103.538 130.352 103.48 130.405C103.424 130.475 103.362 130.458 103.3 130.465C103.238 130.465 103.176 130.483 103.109 130.403C103.042 130.339 102.974 130.06 102.93 129.823C102.817 128.553 102.798 128.198 102.603 127.907C102.25 127.37 101.794 127.054 101.247 127.004C101.355 126.669 101.336 126.623 101.346 126.524C101.348 126.441 101.344 126.384 101.345 126.331C101.343 126.231 101.352 126.164 101.379 126.11C101.427 126.011 101.544 125.97 101.716 125.978C102.061 125.988 102.641 126.157 103.354 126.366C103.658 125.743 103.96 125.13 104.256 124.526C104.766 124.762 105.279 124.993 105.788 125.23C105.789 125.231 105.79 125.232 105.791 125.232C106.474 125.349 105.303 124.505 105.092 124.221C104.254 123.059 104.383 122.21 104.894 121.535C105.587 120.621 107.01 120.019 107.625 119.399C107.85 119.171 107.747 117.892 108.634 118.18C108.865 118.255 109.609 118.689 109.672 118.658C109.515 117.931 109.356 117.207 109.197 116.485C110.914 116.242 110.566 114.693 110.974 113.637C112.078 110.779 113.08 107.883 114.852 105.473C115.196 105.009 115.045 104.045 115.701 103.792C115.974 103.685 117.191 104.35 116.49 103.533C116.806 103.731 117.121 103.93 117.436 104.129C117.204 103.658 116.584 103.053 116.676 102.752C116.755 102.498 117.076 101.899 117.32 101.786C117.444 101.726 118.004 102.142 118.061 102.049C118.154 101.885 117.563 101.027 117.707 100.807C117.837 100.608 118.722 100.721 118.726 100.504C118.736 99.9255 118.403 99.0739 118.511 98.5166C118.532 98.4377 118.721 98.2614 118.746 98.1837C118.792 98.0004 118.885 97.8528 119.051 97.7631C119.237 97.6647 120.105 98.0113 120.119 97.9494C120.146 97.8264 119.463 97.2748 119.418 97.1461C119.19 96.4989 120.391 96.6315 120.657 96.3445C121.501 95.4381 121.986 94.1476 122.865 93.2376C123.408 92.6787 124.064 91.5392 125.032 91.3441C125.239 91.3049 125.985 91.9118 126.062 91.8082C126.147 91.6935 125.672 91.2447 125.669 91.1605C125.668 90.547 125.744 89.3451 126.55 89.3725C126.703 89.3808 127.343 89.7811 127.371 89.7393C127.386 89.719 127.008 89.3667 127.012 89.2723C127.066 88.4202 127.601 88.2021 128.167 87.7342C129.23 86.8601 129.358 85.0773 130.598 84.2577C130.862 84.0865 132.188 84.7956 132.202 84.751C132.233 84.6576 131.458 84.0192 131.364 83.728C131.07 82.7479 132.415 82.7081 132.317 81.9708C132.276 81.5991 131.424 80.5932 131.296 80.2755C131.212 79.9975 131.759 80.059 131.25 79.8202C130.956 79.6561 130.006 79.1341 129.864 79.1103ZM139.617 94.4182C138.248 93.3552 139.15 94.5579 139.994 94.9801C140.184 95.0748 139.972 94.6935 139.617 94.4182ZM125.319 109.101C125.738 109.365 126.156 109.629 126.575 109.894C126.432 109.734 126.29 109.575 126.148 109.416C125.88 109.282 125.613 109.148 125.345 109.014C125.336 109.043 125.328 109.072 125.319 109.101Z" fill="#76B4FF"/>
</svg>
