<svg width="102" height="120" viewBox="0 0 102 120" fill="none" xmlns="http://www.w3.org/2000/svg">
<path d="M46.5697 105.182C46.7174 105.133 46.1808 105.703 46.1951 105.782C46.2487 106.121 45.91 106.555 45.8507 106.956C45.7619 107.55 47.2963 107.763 43.2058 111.298C43.2057 111.298 43.2056 111.298 43.2055 111.298C43.1654 111.333 43.1247 111.368 43.0835 111.403C42.3014 112.074 41.3849 112.733 40.4934 113.483C39.6016 114.233 33.9149 119.158 33.4999 119.325C32.9403 119.529 34.0729 117.889 33.9356 117.86C33.8411 117.841 33.2613 118.215 33.1054 118.22C32.6031 118.237 32.875 117.785 31.2796 118.779C31.9485 118.055 32.6177 117.332 33.2873 116.608C32.8462 116.791 33.6813 115.781 33.569 115.759C33.4767 115.742 32.8604 116.212 32.7831 116.177C32.6929 116.14 33.2421 115.497 33.0446 115.459C32.7238 115.395 31.1578 116.672 30.8623 116.72C30.5561 116.77 31.2301 115.869 30.5566 116.174C30.3709 116.299 30.1851 116.423 29.9993 116.548C29.6286 116.887 29.2579 117.227 28.8872 117.567C28.6423 117.64 29.3974 116.938 29.3501 116.854C29.2948 116.754 28.5142 117.343 28.4688 117.283C28.4323 117.233 28.9747 116.662 28.8857 116.633C28.7589 116.588 27.9139 117.339 27.7121 117.428C27.6332 117.462 26.8583 117.513 26.8346 117.499C26.6723 117.376 27.8416 116.363 27.8424 116.155C27.8402 115.582 26.5953 116.045 25.9727 116.04C25.6947 116.038 25.6405 115.834 25.7132 115.537C28.924 113.203 30.8765 110.738 26.289 114.908C26.8337 114.187 25.4625 115.155 25.5563 114.827C25.6183 114.614 26.2211 113.996 26.0912 113.877C25.856 113.667 23.7646 114.973 27.0894 112.069C26.2582 112.289 27.2839 111.02 24.2111 113.419C23.9678 113.499 25.5924 111.824 25.7667 111.541C25.9299 111.274 26.2442 110.015 26.2099 109.882C26.1754 109.749 26.0828 109.539 25.7527 109.676C25.343 109.845 22.1765 112.357 25.6582 109.155C25.1891 109.189 25.2307 109.027 25.4909 108.481C25.5379 108.383 26.0744 107.931 26.0576 107.91C26.022 107.867 25.5626 108.125 25.4504 108.089C25.2664 108.029 26.3433 107.015 24.6194 108.468C24.2597 108.626 23.9 108.784 23.5403 108.943C23.8513 108.636 24.1623 108.329 24.4734 108.023C24.0716 108.281 23.6698 108.539 23.2679 108.797C25.8237 106.769 24.0839 107.686 22.725 108.98C23.1132 108.39 23.4984 107.797 23.8861 107.207C26.763 104.869 23.9251 106.582 22.3961 107.896C22.3831 107.876 22.3702 107.856 22.3573 107.835C22.9844 107.047 22.2425 107.414 22.5899 106.796C22.9379 106.178 23.232 105.967 24.4995 104.824C24.386 104.84 24.2726 104.855 24.1592 104.871C20.3492 107.598 26.6363 102.501 23.527 104.365C25.6884 102.368 24.2273 103.02 23.3609 103.368C23.2602 103.408 22.8187 103.769 22.6552 103.847C22.2607 104.033 22.6571 103.36 21.2394 104.532C21.5924 104.123 21.9444 103.713 22.2967 103.303C21.9889 103.455 21.6812 103.607 21.3735 103.759C20.9292 104.123 20.4848 104.486 20.0405 104.85C21.4574 103.491 20.7214 103.779 21.0082 103.39C21.0666 103.312 21.6769 102.807 21.7977 102.613C21.9418 102.384 21.6588 102.408 21.7858 102.172C21.0809 102.696 20.3751 103.219 19.6695 103.742C19.183 103.899 20.9372 102.385 21.0081 102.187C21.0199 102.152 20.6661 101.981 20.6157 101.998C20.213 102.124 18.7101 103.403 18.7526 102.785C18.7604 102.674 19.2487 102.192 19.2236 102.118C19.18 101.986 17.732 102.659 16.6016 103.536C17.8926 102.285 17.0631 102.424 17.3855 102C17.4854 101.871 18.3663 101.146 18.4825 100.904C18.5776 100.707 17.7167 101.095 17.7615 100.907C17.8123 100.705 18.5294 100.068 18.547 99.9824C18.5629 99.9019 17.9308 100.35 17.8892 100.292C17.7706 100.102 18.6086 99.1582 18.5148 99.0055C18.3809 98.7822 16.456 100.044 15.5296 100.514C15.6118 100.38 15.9618 100.031 15.9304 99.9847C15.5471 99.3941 15.3893 98.5241 15.3353 97.6726C15.3119 97.2834 17.2338 94.7096 13.3183 98.1184C12.537 98.596 13.6653 96.658 13.5901 96.5132C13.5171 96.3717 12.7132 96.8554 12.6265 96.7686C12.3669 96.508 12.7282 95.8858 11.8143 96.038C11.5765 96.0791 10.6371 96.668 10.6046 96.6066C10.5674 96.5309 11.3475 95.7996 11.334 95.6738C11.2922 95.3753 10.7214 95.2197 10.7158 94.9158C10.7166 94.8588 11.4403 94.2655 11.6304 94.0345C12.3694 93.1271 12.1185 92.9697 9.80652 94.8624C10.9369 93.5577 9.54688 94.294 9.28407 94.1142C8.74182 93.74 8.59219 92.4227 7.26026 92.7588C6.42386 92.9758 5.38131 93.8178 5.9718 92.6969C6.10365 92.4494 6.30673 92.1478 6.46422 91.8527C6.84005 91.165 8.59951 89.3965 6.10197 91.0446C6.49948 90.2967 5.88181 90.3968 7.73574 88.6257C7.23421 88.9775 6.73268 89.3292 6.23115 89.681C6.19283 89.6564 6.15461 89.632 6.1165 89.6077C6.56871 89.2387 7.02129 88.8702 7.47296 88.5005C7.41423 88.2189 6.01617 88.9185 5.40164 89.0901C5.25153 89.1287 5.14696 89.1369 5.11757 89.0935C4.86764 88.7279 4.89652 87.2422 5.26876 86.4344C5.46023 85.9977 4.46192 86.7495 6.4204 85.0821C6.24826 85.1514 6.07629 85.2209 5.90451 85.2906C5.43957 85.6087 4.97463 85.9268 4.5097 86.2449C4.31014 86.0219 4.80449 85.2303 4.62327 85.0075C4.30568 84.6213 2.61066 84.9483 3.10808 83.9164C3.23478 83.658 4.06291 82.8285 3.97933 82.7383C3.85496 82.6015 2.27816 83.7072 2.10924 83.5395C1.812 83.2372 3.14634 81.271 2.76319 81.021C2.64756 80.9426 2.02291 81.2989 1.9081 81.2675C1.40379 81.113 1.27157 80.8224 8.10623e-05 80.8668C1.19879 79.276 3.30987 78.1396 5.36843 76.8956C6.88057 75.8617 10.7369 74.1742 12.2075 73.5755C13.2406 73.154 14.5923 72.6689 15.7285 72.2022C15.9594 72.1161 15.9637 71.8256 15.913 71.702C15.8582 71.566 15.7241 71.5223 15.5372 71.5595C15.1617 71.6318 14.549 71.9804 13.8466 72.4855C14.0265 72.6427 14.3953 73.0487 14.7515 73.4204C14.2362 73.8517 13.722 74.2843 13.2096 74.7194C13.2084 74.7203 13.2072 74.7212 13.206 74.722C12.7087 75.3527 14.1478 74.3949 14.5313 74.2546C18.1659 72.8648 17.1495 76.3721 17.5842 77.6254C17.676 77.8919 18.9252 78.0297 18.1785 78.8433C17.9841 79.0553 17.1757 79.6998 17.172 79.7684C17.2513 79.7674 17.3308 79.7666 17.4104 79.766C18.0886 79.7402 18.7855 79.7379 19.466 79.7138C18.7749 81.4401 20.4241 81.395 21.1975 81.979C23.3022 83.573 25.5191 85.0568 26.8897 87.1666C27.1582 87.5815 28.142 87.5707 28.0532 88.2578C28.0174 88.5441 26.774 89.6469 27.901 89.0742C27.5541 89.3565 27.2072 89.6388 26.8603 89.9212C27.4234 89.7599 28.3075 89.2353 28.5488 89.3701C28.753 89.4875 29.1569 89.8829 29.144 90.139C29.1393 90.2694 28.4658 90.7656 28.527 90.8346C28.6363 90.9486 29.749 90.4875 29.8831 90.6533C30.0056 90.8049 29.4655 91.6679 29.6695 91.6983C30.4011 91.8153 31.8747 91.3667 31.9473 92.0623C31.9635 92.2538 31.252 93.0964 31.3071 93.1162C31.4176 93.1523 32.2524 92.5104 32.3988 92.4758C33.1391 92.3021 32.5008 93.4989 32.6675 93.7815C33.2176 94.7116 34.2898 95.2951 34.8126 96.235C35.147 96.8329 35.9978 97.5726 35.7818 98.5532C35.7351 98.765 34.8242 99.4731 34.8958 99.5595C34.9754 99.6553 35.6184 99.2102 35.704 99.2148C36.3022 99.2458 37.472 99.4216 37.1039 100.224C37.0328 100.378 36.372 100.996 36.4024 101.028C36.4165 101.044 36.9222 100.688 37.0149 100.701C37.831 100.809 37.8393 101.38 38.0595 101.973C38.4835 103.103 40.2133 103.378 40.5098 104.69C40.575 104.976 39.3268 106.268 39.3644 106.285C39.444 106.323 40.3952 105.586 40.7269 105.518C41.8204 105.299 41.3166 106.687 42.1091 106.688C42.5001 106.689 43.8876 105.964 44.3065 105.934C44.6413 105.911 44.4921 106.657 45.0585 106.289C45.4009 106.066 46.4044 105.239 46.5697 105.182ZM26.7392 113.088C28.3546 111.779 26.7849 112.596 26.0226 113.424C25.851 113.61 26.3199 113.428 26.7392 113.088ZM18.1836 96.9783C17.723 97.353 17.2624 97.7277 16.8018 98.1025C17.0256 97.9866 17.2495 97.8707 17.4734 97.7548C17.7339 97.5092 17.9945 97.2637 18.2551 97.0182C18.2312 97.0049 18.2074 96.9916 18.1836 96.9783Z" fill="#FF924A"/>
<path d="M81.7866 1.90327C81.7177 1.72385 82.5056 1.89486 82.6151 1.77164C83.0764 1.26757 83.6766 1.27644 84.1912 0.92406C84.3871 0.782682 84.5361 0.523427 84.6933 0.306457C84.8538 0.0876057 85.0261 -0.126624 85.1991 0.0905727C85.2877 0.209708 85.359 0.438215 85.4545 1.07198C85.5851 1.66166 85.5751 2.98659 86.5723 4.95383C87.6371 6.96478 89.2266 7.66027 89.7555 7.47935C90.3802 7.35141 90.6654 6.83303 91.0701 6.29488C91.0702 6.29477 91.0703 6.29466 91.0704 6.29455C91.1011 6.25132 91.132 6.2075 91.1632 6.16309C91.8356 5.39549 92.0159 4.07578 92.8947 3.2591C93.3404 2.88837 95.0296 1.49534 96.9335 0.614411C98.7724 -0.387406 101.383 0.173585 101.7 1.97991C102.027 4.45847 101.149 5.27156 100.57 5.81401C99.9471 6.32315 99.3368 6.54198 99.3077 6.71519C99.2608 6.96365 99.7737 7.48401 99.7551 7.80648C99.7162 8.79479 99.0837 8.93433 100.388 10.4678C99.3858 10.2775 98.3757 10.1004 97.3724 9.90802C97.608 10.4399 96.1893 10.3648 96.1528 10.5862C96.1183 10.7772 96.7511 11.2366 96.6887 11.4315C96.6273 11.643 95.7402 11.5322 95.6598 11.9505C95.5389 12.607 97.2669 13.6576 97.3036 14.1319C97.3556 14.5963 96.0823 14.6459 96.4728 15.4183C96.6385 15.579 96.8041 15.74 96.9694 15.9013C97.433 16.1002 97.8966 16.2992 98.3601 16.4983C98.4454 16.8326 97.4868 16.4404 97.3565 16.6422C97.2007 16.8827 97.9925 17.4706 97.9023 17.6276C97.827 17.7569 97.0412 17.564 96.9892 17.7627C96.9093 18.0513 97.9328 18.5349 98.0427 18.7757C98.0792 18.8807 98.0947 20.158 98.0657 20.2299C97.8613 20.6985 96.4921 19.9781 96.187 20.2553C95.3384 21.0414 95.907 22.6085 95.845 23.707C95.8202 24.1932 95.5124 24.5688 95.0793 24.8452C91.9398 22.3343 88.5016 22.1994 94.2113 24.6708C93.205 24.674 94.5035 25.7851 94.0256 26.0695C93.9363 26.1222 93.8019 26.1416 93.6509 26.152C93.2817 26.168 92.8114 26.128 92.6786 26.404C92.3527 27.0941 94.0805 29.0229 90.1095 27.0857C90.3663 28.2368 88.5699 28.184 91.8402 30.3238C91.9393 30.6384 89.6188 30.044 89.2158 30.1236C88.83 30.2099 87.0133 31.345 86.8085 31.597C86.6063 31.8443 86.2892 32.2906 86.4664 32.6786C86.6814 33.1664 90.1159 35.3069 85.6914 33.5502C85.6973 34.335 85.4638 34.4796 84.6821 34.7639C84.5405 34.8158 83.9193 34.49 83.8868 34.5479C83.821 34.6679 84.1634 35.1217 84.1004 35.368C83.9966 35.7729 82.5902 35.2681 84.5888 36.3117C84.7895 36.7318 84.9965 37.1404 85.2008 37.5539C84.7749 37.4259 84.3489 37.298 83.9228 37.1702C84.2706 37.522 84.6182 37.8742 84.9657 38.2266C82.186 36.5116 83.3918 38.3162 85.1896 38.9304C84.3483 39.0613 83.5081 39.1901 82.6713 39.3129C79.4556 37.4667 81.7531 40.0976 83.5688 40.9787C83.5378 41.0292 83.5068 41.0797 83.4757 41.1302C82.3608 41.1141 82.8417 41.9133 81.9606 42.1446C81.0789 42.377 80.7903 42.1526 79.2031 41.5006C79.2174 41.6777 79.2315 41.8549 79.2456 42.0324C82.9669 44.9688 75.9418 40.9466 78.4463 43.8372C75.6661 42.7968 76.5125 44.4629 76.9625 45.4952C77.0144 45.6156 77.5138 45.891 77.6163 46.0698C77.861 46.5032 76.8947 46.7405 78.5186 47.605C77.9398 47.5534 77.3609 47.5022 76.7818 47.4514C76.9841 47.7781 77.1866 48.1044 77.3888 48.4313C77.8928 48.7065 78.3967 48.9818 78.9006 49.2571C77.0015 48.65 77.3721 49.5384 76.819 49.5739C76.7074 49.5801 76.0068 49.2104 75.7289 49.2676C75.401 49.3322 75.4126 49.7986 75.0738 49.9018C75.7956 50.4104 76.5173 50.9191 77.2391 51.4278C77.4374 52.0559 75.3295 51.083 75.0428 51.2315C74.9923 51.2586 74.7141 52.1119 74.7345 52.1777C74.8908 52.7076 76.6733 53.5606 75.7635 54.3408C75.6003 54.4793 74.9239 54.2929 74.8129 54.4383C74.6159 54.6944 75.5098 56.2847 76.7277 57.0393C74.9717 56.5173 75.1152 57.7778 74.5146 57.797C74.3308 57.8014 73.3207 57.2712 72.9715 57.403C72.6874 57.5093 73.2033 58.4679 72.9295 58.6494C72.6349 58.8404 71.7417 58.4764 71.6157 58.5653C71.4975 58.6498 72.1177 59.1275 72.0281 59.2817C71.7367 59.757 70.4025 59.6005 70.1708 59.9754C69.8331 60.5165 71.5707 62.1107 72.2064 63.0664C72.0127 63.1109 71.5192 62.9884 71.4487 63.1077C70.561 64.5769 69.2619 66.0684 68.0047 67.3416C67.4257 67.9291 63.7423 68.1816 68.5462 70.2087C69.2093 70.8888 66.4073 71.6499 66.1941 71.9735C65.9822 72.2951 66.652 73.0083 66.5196 73.2783C66.1225 74.0872 65.2192 74.341 65.4003 75.6958C65.4489 76.0477 66.2695 76.8431 66.1768 76.9856C66.0622 77.1573 65.0215 76.839 64.8346 77.0391C64.3947 77.5237 64.1465 78.7065 63.6899 79.1562C63.605 79.2363 62.7656 78.821 62.4329 78.8195C61.134 78.8122 60.892 79.4604 63.5705 80.7891C61.7104 80.6544 62.7085 82.0528 62.4434 82.7344C61.8779 84.1699 59.9059 86.3202 60.369 88.0893C60.6602 89.2072 61.8369 89.8479 60.2284 90.3792C59.871 90.4985 59.4411 90.5637 59.0067 90.7205C57.9911 91.0773 55.4794 90.5116 57.8099 92.4669C56.7027 92.8797 56.8592 93.7374 54.3096 93.0839C54.8091 93.4457 55.3087 93.8073 55.8085 94.1687C55.7696 94.2714 55.731 94.3738 55.6925 94.4758C55.1642 94.2257 54.636 93.9756 54.1078 93.7254C53.6027 94.3224 55.2417 96.3254 54.9136 96.8902C54.8033 97.0809 54.6276 97.3136 54.41 97.5637C53.5222 98.607 51.9758 99.9424 51.0255 100.376C50.3938 100.662 51.4793 101.282 49.0751 100.326C49.1739 100.518 49.2779 100.701 49.3727 100.901C49.8292 101.239 50.2858 101.576 50.7427 101.914C50.4223 102.55 49.2615 102.857 48.9492 103.451C48.3815 104.535 48.8749 106.874 47.4032 107.46C47.0269 107.618 45.8257 107.401 45.7001 107.662C45.501 108.069 47.151 109.065 46.922 109.567C46.5271 110.424 43.7114 110.946 43.4537 111.799C43.3703 112.062 43.9461 112.506 43.9336 112.694C43.8727 113.514 43.5244 114.053 44.2263 115.117C42.2959 114.853 40.2136 113.7 37.9503 112.872C37.4181 112.678 36.6706 112.39 35.8051 112.201C33.9272 111.839 31.5025 111.089 30.3108 112.612C29.1046 113.481 28.0158 110.193 26.6667 111.071C26.7419 110.393 26.7689 110.193 26.785 109.983C26.8006 109.79 26.8053 109.664 26.81 109.554C26.8185 109.34 26.8254 109.199 26.8452 109.075C27.2212 107.79 27.5381 107.708 28.045 107.54C28.5437 107.416 29.2058 107.415 29.9753 107.436C30.6207 106.03 31.236 104.733 31.8705 103.399C32.5273 103.593 33.1746 103.804 33.8283 104.004C33.8296 104.004 33.8309 104.005 33.8322 104.006C34.7821 103.871 33.3659 102.859 33.1651 102.405C31.2266 98.0809 36.5103 94.5038 38.3826 91.9522C38.6944 91.5207 38.9019 90.1114 39.5098 89.4372C39.7027 89.2298 39.9386 89.1056 40.2321 89.1346C40.5383 89.1655 41.4618 89.6313 41.5626 89.5405C41.5832 88.2191 41.579 86.9441 41.5971 85.6285C44.1432 84.3182 44.1367 81.5652 45.066 79.3512C47.5662 73.3852 49.9085 67.4146 53.1646 61.9892C53.7971 60.9383 53.8607 59.2111 54.8755 58.3991C55.2981 58.059 56.8523 58.6773 56.0827 57.5074C56.4782 57.7164 56.8737 57.9253 57.2692 58.1343C57.0708 57.3731 56.3543 56.563 56.5725 55.9498C56.7575 55.4347 57.3861 54.1502 57.7658 53.8133C57.9598 53.6372 58.6483 54.1199 58.7556 53.9154C58.9339 53.5621 58.3269 52.266 58.5891 51.7878C58.8268 51.3544 60.0709 51.0879 60.1317 50.6869C60.356 49.2486 59.8211 47.2562 60.8575 46.1617C61.146 45.8607 62.3439 45.9301 62.3787 45.8038C62.4423 45.5568 61.5547 44.9861 61.5158 44.7756C61.3224 43.7061 63.0441 43.1681 63.4872 42.4634C64.9156 40.1958 65.8877 37.4675 67.3399 35.2216C68.2584 33.7991 69.4395 31.2596 70.8895 30.2618C71.2004 30.0503 72.1688 30.6829 72.3035 30.4371C72.4528 30.1644 71.8485 29.646 71.8656 29.4838C71.972 28.3723 72.353 26.0387 73.5087 25.5867C73.7294 25.5021 74.5843 25.8222 74.633 25.7265C74.6585 25.6801 74.1787 25.2724 74.2079 25.088C74.458 23.4704 75.312 22.6601 76.2084 21.4635C77.0278 20.3586 77.5921 19.0089 78.1518 17.6711C78.8161 16.1013 79.4494 14.5928 80.5167 13.3247C80.9367 12.8369 82.7387 13.2654 82.7628 13.1835C82.8276 12.9894 81.8344 12.2997 81.7633 11.8093C81.5645 10.134 83.5601 9.14667 83.637 7.73256C83.6751 7.03604 82.7391 5.55261 82.7297 4.85141C82.7245 4.28851 83.7765 3.57696 83.2877 3.06401C82.989 2.76165 81.8633 2.10845 81.7866 1.90327ZM91.5775 26.3259C89.7985 25.2467 90.8539 26.9165 92.0054 27.1367C92.2651 27.1856 92.0399 26.605 91.5775 26.3259ZM67.1536 63.3698C67.6783 63.6476 68.2031 63.9255 68.7279 64.2034C68.5708 63.976 68.4138 63.7485 68.2567 63.521C67.9103 63.4105 67.5638 63.3 67.2173 63.1895C67.1961 63.2496 67.1748 63.3097 67.1536 63.3698Z" fill="#FF924A"/>
</svg>
